<svg width="9" height="9" viewBox="0 0 9 9" fill="none" xmlns="http://www.w3.org/2000/svg">
<path fill-rule="evenodd" clip-rule="evenodd" d="M8.16668 0.5C8.25508 0.5 8.33986 0.535117 8.40237 0.597625C8.46488 0.660134 8.5 0.744915 8.5 0.833315L8.5 4.83311C8.5 4.92151 8.46488 5.00629 8.40237 5.06879C8.33987 5.1313 8.25508 5.16642 8.16668 5.16642C8.07828 5.16642 7.9935 5.1313 7.93099 5.06879C7.86848 5.00629 7.83337 4.92151 7.83337 4.83311L7.83337 1.63794L1.06972 8.40225C1.03873 8.43324 1.00194 8.45782 0.961452 8.4746C0.920962 8.49137 0.877564 8.5 0.833737 8.5C0.78991 8.5 0.746512 8.49137 0.706021 8.4746C0.66553 8.45782 0.62874 8.43324 0.597749 8.40225C0.566759 8.37126 0.542176 8.33447 0.525404 8.29398C0.508632 8.25349 0.5 8.21009 0.5 8.16626C0.5 8.12244 0.508632 8.07904 0.525404 8.03855C0.542176 7.99806 0.566759 7.96127 0.597749 7.93028L7.36206 1.16663L4.16689 1.16663C4.07849 1.16663 3.99371 1.13151 3.9312 1.06901C3.8687 1.0065 3.83358 0.921717 3.83358 0.833316C3.83358 0.744915 3.8687 0.660135 3.9312 0.597626C3.99371 0.535117 4.07849 0.5 4.16689 0.5L8.16668 0.5Z" fill="black"/>
</svg>
