<svg width="80" height="80" viewBox="0 0 80 80" fill="none" xmlns="http://www.w3.org/2000/svg">
<path d="M23.8882 58.2778L14.1382 54.1341C12.9097 53.6076 11.4716 54.1877 10.9451 55.426C10.4186 56.6642 10.9938 58.0975 12.237 58.6191L21.987 62.7628C22.2941 62.8945 22.6207 62.9578 22.9376 62.9578C23.8833 62.9578 24.7852 62.4021 25.1801 61.471C25.7066 60.2327 25.1313 58.7995 23.8882 58.2778Z" fill="#FF001A" stroke="white"/>
<path d="M78.9659 17.9472C78.9512 17.6986 78.9366 17.4499 78.844 17.2013C78.7904 17.0599 78.6929 16.9624 78.6149 16.8357C78.5612 16.7479 78.5223 16.6699 78.4638 16.5919C78.1908 16.2361 77.8544 15.9631 77.4498 15.8071C77.4351 15.8022 77.4303 15.7876 77.4156 15.7827L38.4156 1.16256C37.8258 0.933435 37.1774 0.94806 36.6021 1.19668L2.47713 15.8168C2.443 15.8314 2.42838 15.8704 2.39425 15.8851C2.05788 16.0459 1.77513 16.2946 1.54112 16.6017C1.47287 16.6894 1.41438 16.7674 1.35587 16.8649C1.30713 16.9478 1.234 17.0063 1.195 17.0989C1.06337 17.4109 1 17.7327 1 18.0544V18.0593V61.9343C1 62.9093 1.58013 63.7917 2.47713 64.1768L36.6021 78.8018H36.607C36.9044 78.9286 37.2261 78.9968 37.5625 78.9968C37.855 78.9968 38.1426 78.9432 38.4205 78.8408L38.5082 78.8067C38.5082 78.8067 38.5083 78.8067 38.5131 78.8067L77.4205 64.2158C78.3711 63.8599 79 62.9483 79 61.9343V18.0593C79 18.0154 78.9659 17.9862 78.9659 17.9472ZM35.125 72.8592L5.875 60.3256V21.7593L35.125 34.2929V72.8592ZM37.621 30.0567L9.62875 18.0593L37.621 6.06681L69.6205 18.0593L61.9911 20.9209L48.3119 14.7931C47.6196 14.4811 46.8299 14.5152 46.1717 14.8759L36.6119 18.9368C35.71 19.3171 35.125 20.2141 35.125 21.1939C35.125 22.1787 35.7197 23.0708 36.6362 23.4462L45.5039 27.1073L37.621 30.0567ZM54.625 28.8867L59.5 27.0586V38.9389L54.625 40.7671V28.8867ZM52.1973 24.5918L43.861 21.1549L47.3125 19.6876L55.5025 23.3536L52.1973 24.5918ZM74.125 60.2427L40 73.0396V34.3711L49.75 30.7148V44.2868C49.75 45.0863 50.1449 45.8322 50.7981 46.2904C51.2125 46.5781 51.6951 46.7243 52.1875 46.7243C52.4751 46.7243 52.7676 46.6707 53.0455 46.5683L62.7955 42.9121C63.7461 42.5513 64.375 41.6446 64.375 40.6306V25.2304L74.125 21.5742V60.2427Z" fill="black" stroke="white"/>
</svg>
