<svg width="38" height="36" viewBox="0 0 38 36" fill="none" xmlns="http://www.w3.org/2000/svg">
<path d="M33.206 18.7423L29.4715 12.2739C29.3711 12.1 29.1856 11.9929 28.9848 11.9929H6.5777C6.37694 11.9929 6.19143 12.1 6.09105 12.2739L2.35653 18.7423C2.25616 18.9161 2.25616 19.1303 2.35653 19.3042C2.45692 19.4781 2.64242 19.5852 2.84318 19.5852H6.01577V21.6295H4.64247C4.33212 21.6295 4.08053 21.8811 4.08053 22.1915V23.9329C4.08053 24.2433 4.33212 24.4949 4.64247 24.4949H8.51294C8.82329 24.4949 9.07487 24.2433 9.07487 23.9329V22.1915C9.07487 21.8811 8.82329 21.6295 8.51294 21.6295H7.13963V19.5852H17.2193V21.6295H15.846C15.5357 21.6295 15.2841 21.8811 15.2841 22.1915V23.9329C15.2841 24.2433 15.5357 24.4949 15.846 24.4949H19.7165C20.0268 24.4949 20.2784 24.2433 20.2784 23.9329V22.1915C20.2784 21.8811 20.0268 21.6295 19.7165 21.6295H18.3432V19.5852H28.4229V21.6295H27.0496C26.7392 21.6295 26.4876 21.8811 26.4876 22.1915V23.9329C26.4876 24.2433 26.7392 24.4949 27.0496 24.4949H30.92C31.2304 24.4949 31.482 24.2433 31.482 23.9329V22.1915C31.482 21.8811 31.2304 21.6295 30.92 21.6295H29.5467V19.5852H32.7193C32.9201 19.5852 33.1056 19.4781 33.206 19.3042C33.3063 19.1303 33.3063 18.9161 33.206 18.7423ZM7.951 23.371H5.2044V22.7534H7.95101V23.371H7.951ZM19.1546 23.371H16.408V22.7534H19.1546V23.371ZM30.3581 23.371H27.6115V22.7534H30.3581V23.371ZM17.7813 17.8994L15.02 13.1168H20.5425L17.7813 17.8994ZM3.81648 18.4613L6.5777 13.6787L9.33892 18.4613H3.81648ZM7.551 13.1168H13.0734L10.3122 17.8994L7.551 13.1168ZM11.2855 18.4613L14.0467 13.6787L16.808 18.4613H11.2855ZM18.7546 18.4613L21.5158 13.6787L24.277 18.4613H18.7546ZM22.4891 13.1168H28.0115L25.2503 17.8994L22.4891 13.1168ZM26.2236 18.4613L28.9848 13.6787L31.746 18.4613H26.2236Z" fill="#2F92EE" stroke="white" stroke-width="0.4"/>
</svg>
