<svg width="72" height="72" viewBox="0 0 72 72" fill="none" xmlns="http://www.w3.org/2000/svg">
<path d="M36 1C16.6564 1 1 16.6538 1 36C1 42.139 2.6011 48.1348 5.64149 53.4231L1.13191 67.4271C0.817352 68.4034 1.07584 69.4736 1.80109 70.1989C2.51939 70.9172 3.58697 71.1853 4.57284 70.8681L18.5769 66.3585C23.8651 69.3989 29.861 71 36 71C55.3435 71 71 55.3462 71 36C71 16.6564 55.3462 1 36 1ZM36 65.5312C30.4549 65.5312 25.0497 63.9841 20.3687 61.0569C19.6952 60.6361 18.8589 60.5223 18.0808 60.7728L7.97159 64.0284L11.2272 53.9192C11.4739 53.1523 11.3698 52.3149 10.9425 51.6313C8.01591 46.9503 6.46875 41.5451 6.46875 36C6.46875 19.7166 19.7166 6.46875 36 6.46875C52.2834 6.46875 65.5312 19.7166 65.5312 36C65.5312 52.2834 52.2834 65.5312 36 65.5312Z" fill="white" stroke="white" stroke-width="0.5"/>
<path d="M36 39.418C37.8879 39.418 39.418 37.8874 39.418 36C39.418 34.1121 37.8879 32.582 36 32.582C34.1121 32.582 32.582 34.1121 32.582 36C32.582 37.8874 34.1121 39.418 36 39.418Z" fill="white"/>
<path d="M49.6719 39.418C51.5598 39.418 53.0898 37.8874 53.0898 36C53.0898 34.1121 51.5598 32.582 49.6719 32.582C47.784 32.582 46.2539 34.1121 46.2539 36C46.2539 37.8874 47.784 39.418 49.6719 39.418Z" fill="white"/>
<path d="M22.3281 39.418C24.216 39.418 25.7461 37.8874 25.7461 36C25.7461 34.1121 24.216 32.582 22.3281 32.582C20.4408 32.582 18.9102 34.1121 18.9102 36C18.9102 37.8874 20.4408 39.418 22.3281 39.418Z" fill="white"/>
<path d="M36 39.418C37.8879 39.418 39.418 37.8874 39.418 36C39.418 34.1121 37.8879 32.582 36 32.582C34.1121 32.582 32.582 34.1121 32.582 36C32.582 37.8874 34.1121 39.418 36 39.418Z" stroke="white" stroke-width="0.5"/>
<path d="M49.6719 39.418C51.5598 39.418 53.0898 37.8874 53.0898 36C53.0898 34.1121 51.5598 32.582 49.6719 32.582C47.784 32.582 46.2539 34.1121 46.2539 36C46.2539 37.8874 47.784 39.418 49.6719 39.418Z" stroke="white" stroke-width="0.5"/>
<path d="M22.3281 39.418C24.216 39.418 25.7461 37.8874 25.7461 36C25.7461 34.1121 24.216 32.582 22.3281 32.582C20.4408 32.582 18.9102 34.1121 18.9102 36C18.9102 37.8874 20.4408 39.418 22.3281 39.418Z" stroke="white" stroke-width="0.5"/>
</svg>
