<svg width="18" height="17" viewBox="0 0 18 17" fill="none" xmlns="http://www.w3.org/2000/svg">
<path d="M10.6 13.8C13.6168 13.8 15.1256 13.8 16.0624 12.8624C17 11.9256 17 10.4168 17 7.4C17 4.3832 17 2.8744 16.0624 1.9376C15.1256 1 13.6168 1 10.6 1H7.4C4.3832 1 2.8744 1 1.9376 1.9376C1 2.8744 1 4.3832 1 7.4C1 10.4168 1 11.9256 1.9376 12.8624C2.46 13.3856 3.16 13.6168 4.2 13.7184" stroke="black" stroke-width="1.5" stroke-linecap="round" stroke-linejoin="round"/>
<path d="M8.99941 7.40002V7.40802M5.79941 7.40002V7.40802M12.1994 7.40002V7.40802M10.5994 13.8C9.61061 13.8 8.52101 14.2 7.52661 14.716C5.92821 15.5456 5.12901 15.9608 4.73541 15.696C4.34181 15.432 4.41621 14.612 4.56581 12.9728L4.59941 12.6" stroke="black" stroke-width="1.5" stroke-linecap="round"/>
</svg>
