<svg width="58" height="58" viewBox="0 0 58 58" fill="none" xmlns="http://www.w3.org/2000/svg">
<path d="M26.5845 53.1666C22.7003 53.1666 18.8733 52.2303 15.4277 50.4371C11.9822 48.6439 9.01966 46.0466 6.79114 42.8652C4.56261 39.6839 3.13376 36.0122 2.62564 32.1614C2.11752 28.3105 2.54511 24.3939 3.87217 20.7434C5.19924 17.0929 7.38667 13.816 10.2492 11.1904C13.1116 8.56488 16.5648 6.66798 20.3161 5.66046C24.0674 4.65293 28.0063 4.56447 31.799 5.40257C35.5918 6.24066 39.1266 7.98062 42.1041 10.475C42.3518 10.6775 42.5567 10.9272 42.7071 11.2095C42.8576 11.4919 42.9504 11.8012 42.9804 12.1197C43.0103 12.4382 42.9767 12.7595 42.8815 13.0649C42.7863 13.3703 42.6314 13.6538 42.4258 13.8989C42.2203 14.144 41.9681 14.3458 41.6839 14.4927C41.3997 14.6396 41.0891 14.7286 40.7703 14.7545C40.4515 14.7805 40.1306 14.7429 39.8264 14.6439C39.5222 14.5449 39.2407 14.3865 38.9982 14.1778C35.6781 11.399 31.5213 9.81509 27.1939 9.67996C22.8665 9.54484 18.619 10.8663 15.132 13.4326C11.6451 15.9989 9.12051 19.6615 7.96295 23.8334C6.80538 28.0053 7.0818 32.445 8.74791 36.4412C10.414 40.4373 13.3734 43.7584 17.1517 45.8724C20.9301 47.9863 25.3087 48.7707 29.586 48.0999C33.8632 47.429 37.7914 45.3417 40.7412 42.1725C43.6909 39.0033 45.4914 34.9356 45.854 30.6213C45.8767 30.3037 45.9626 29.9939 46.1067 29.7099C46.2507 29.426 46.4501 29.1737 46.6931 28.968C46.936 28.7622 47.2176 28.607 47.5214 28.5116C47.8251 28.4161 48.1449 28.3824 48.4619 28.4122C48.778 28.4385 49.0859 28.5269 49.3679 28.6722C49.6499 28.8174 49.9005 29.0169 50.1054 29.259C50.3103 29.5012 50.4655 29.7814 50.5622 30.0835C50.6588 30.3857 50.6949 30.7039 50.6685 31.0201C50.1338 37.0481 47.3684 42.6595 42.9138 46.7557C38.4592 50.852 32.6361 53.1381 26.5845 53.1666ZM32.0314 36.6323L54.874 13.7919C55.1048 13.569 55.2889 13.3023 55.4156 13.0075C55.5423 12.7126 55.6089 12.3955 55.6117 12.0746C55.6145 11.7537 55.5534 11.4355 55.4318 11.1385C55.3103 10.8415 55.1309 10.5717 54.904 10.3448C54.6771 10.1179 54.4072 9.93842 54.1102 9.81691C53.8132 9.6954 53.495 9.63425 53.1741 9.63704C52.8532 9.63983 52.5361 9.7065 52.2413 9.83315C51.9464 9.95981 51.6798 10.1439 51.4569 10.3747L28.614 33.2149C28.3775 33.454 28.0932 33.6405 27.7797 33.7621C27.4661 33.8837 27.1304 33.9377 26.7945 33.9206C26.4704 33.9099 26.1519 33.8324 25.8591 33.6929C25.5663 33.5534 25.3055 33.355 25.0929 33.11L18.8152 25.093C18.4169 24.5974 17.8394 24.2788 17.2078 24.2062C16.5763 24.1335 15.9415 24.3126 15.4411 24.7047C14.9407 25.0968 14.6149 25.6702 14.5343 26.3008C14.4538 26.9315 14.625 27.5684 15.0109 28.0737L21.3333 36.1473C21.979 36.9206 22.7784 37.5513 23.6807 37.9992C24.5831 38.4471 25.5687 38.7026 26.5751 38.7493C26.6837 38.754 26.7922 38.7563 26.9006 38.7563C28.8246 38.7554 30.6698 37.9916 32.0314 36.6323Z" fill="#FF001A"/>
</svg>
