<svg width="28" height="27" viewBox="0 0 28 27" fill="none" xmlns="http://www.w3.org/2000/svg">
<path d="M11.3202 12.2558V5.0625H11.8827C12.0319 5.0625 12.175 5.00324 12.2805 4.89775C12.386 4.79226 12.4452 4.64918 12.4452 4.5C12.4452 4.35082 12.386 4.20774 12.2805 4.10225C12.175 3.99676 12.0319 3.9375 11.8827 3.9375H5.13275C4.98356 3.9375 4.84049 3.99676 4.735 4.10225C4.62951 4.20774 4.57025 4.35082 4.57025 4.5C4.57025 4.64918 4.62951 4.79226 4.735 4.89775C4.84049 5.00324 4.98356 5.0625 5.13275 5.0625H5.69525V12.2558L1.24356 22.2715C1.20561 22.3572 1.18964 22.4509 1.1971 22.5443C1.20456 22.6377 1.23521 22.7278 1.28627 22.8063C1.33734 22.8849 1.4072 22.9495 1.48953 22.9942C1.57186 23.0389 1.66405 23.0624 1.75775 23.0625H15.2577C15.3514 23.0624 15.4436 23.0389 15.526 22.9942C15.6083 22.9495 15.6781 22.8849 15.7292 22.8063C15.7803 22.7278 15.8109 22.6377 15.8184 22.5443C15.8258 22.4509 15.8099 22.3571 15.7719 22.2715L11.3202 12.2558ZM6.77187 12.6035C6.80374 12.5315 6.82021 12.4537 6.82025 12.375V5.0625H10.1952V12.375C10.1953 12.4537 10.2117 12.5315 10.2436 12.6035L11.392 15.1875H5.62356L6.77187 12.6035ZM2.62343 21.9375L5.12431 16.3108C5.12735 16.3108 5.12993 16.3125 5.13275 16.3125H11.8827C11.8858 16.3125 11.8884 16.3109 11.8912 16.3108L14.392 21.9375H2.62343Z" fill="#2F92EE"/>
<path d="M20.8827 10.181V5.0625H21.4452C21.5944 5.0625 21.7374 5.00324 21.8429 4.89775C21.9484 4.79226 22.0077 4.64918 22.0077 4.5C22.0077 4.35082 21.9484 4.20774 21.8429 4.10225C21.7374 3.99676 21.5944 3.9375 21.4452 3.9375H14.6952C14.546 3.9375 14.4029 3.99676 14.2974 4.10225C14.1919 4.20774 14.1327 4.35082 14.1327 4.5C14.1327 4.64918 14.1919 4.79226 14.2974 4.89775C14.4029 5.00324 14.546 5.0625 14.6952 5.0625H15.2577V10.1821C14.3074 10.6267 13.4724 11.2844 12.8176 12.1042C12.7241 12.2204 12.6806 12.3691 12.6966 12.5174C12.7127 12.6658 12.787 12.8017 12.9033 12.8952C13.0196 12.9887 13.1682 13.0322 13.3166 13.0162C13.4649 13.0001 13.6008 12.9258 13.6943 12.8095C14.307 12.0391 15.1102 11.4421 16.0245 11.0775C16.1301 11.0364 16.2207 10.9644 16.2846 10.8709C16.3485 10.7774 16.3827 10.6667 16.3827 10.5535V5.0625H19.7577V10.5535C19.7576 10.6667 19.7918 10.7774 19.8557 10.8709C19.9196 10.9644 20.0103 11.0364 20.1158 11.0775C20.8045 11.3453 21.4332 11.747 21.9655 12.2594C22.4979 12.7718 22.9234 13.3846 23.2173 14.0625H14.2195C14.0703 14.0625 13.9272 14.1218 13.8217 14.2273C13.7162 14.3327 13.657 14.4758 13.657 14.625C13.657 14.7742 13.7162 14.9173 13.8217 15.0227C13.9272 15.1282 14.0703 15.1875 14.2195 15.1875H23.5695C23.7463 16.0048 23.7368 16.8515 23.5418 17.6647C23.3469 18.4779 22.9713 19.2367 22.4432 19.885C21.915 20.5333 21.2476 21.0545 20.4906 21.4098C19.7336 21.7651 18.9064 21.9454 18.0702 21.9375C17.9933 21.9375 17.9175 21.932 17.8417 21.9265C17.8406 21.9265 17.7472 21.9205 17.746 21.9205C17.674 21.9139 17.6014 21.9228 17.5332 21.9467C17.465 21.9707 17.4027 22.009 17.3506 22.0591C17.2985 22.1093 17.2578 22.17 17.2312 22.2373C17.2047 22.3045 17.1929 22.3767 17.1967 22.4489C17.1973 22.6025 17.2564 22.75 17.362 22.8616C17.4675 22.9731 17.6116 23.0403 17.7649 23.0493C17.8659 23.0559 17.967 23.0625 18.0703 23.0625C19.6102 23.0631 21.104 22.5369 22.3035 21.5714C23.5031 20.6058 24.3363 19.259 24.6648 17.7545C24.9932 16.2501 24.7972 14.6785 24.1092 13.3008C23.4212 11.9232 22.2827 10.8223 20.8827 10.181Z" fill="#2F92EE"/>
</svg>
