<svg width="6" height="4" viewBox="0 0 6 4" fill="none" xmlns="http://www.w3.org/2000/svg">
<path d="M0.132069 3.38528C0.216659 3.45874 0.331371 3.5 0.450981 3.5C0.57059 3.5 0.685303 3.45874 0.769892 3.38528L3.00272 1.44577L5.23555 3.38528C5.32063 3.45665 5.43457 3.49615 5.55284 3.49525C5.67111 3.49436 5.78425 3.45315 5.86788 3.38051C5.95152 3.30786 5.99896 3.20959 5.99998 3.10685C6.00101 3.00412 5.95554 2.90514 5.87338 2.83125L3.32163 0.61472C3.23705 0.541265 3.12233 0.5 3.00272 0.5C2.88311 0.5 2.7684 0.541265 2.68381 0.61472L0.132069 2.83125C0.0475054 2.90472 0 3.00437 0 3.10826C0 3.21216 0.0475054 3.3118 0.132069 3.38528Z" fill="white"/>
</svg>
