<svg width="29" height="29" viewBox="0 0 29 29" fill="none" xmlns="http://www.w3.org/2000/svg">
<g clip-path="url(#clip0_323_226)">
<path d="M14.4538 0.90625C8.56316 0.90625 3.53347 4.7125 1.67566 9.96875H27.3225C25.4194 4.7125 20.3897 0.90625 14.4538 0.90625Z" fill="#F9F9F9"/>
<path d="M14.4538 28.0938C20.3897 28.0938 25.4194 24.2875 27.2772 19.0312H1.67566C3.53347 24.3328 8.56316 28.0938 14.4538 28.0938Z" fill="#F60019"/>
<path d="M1.67656 9.96875C1.17813 11.3734 0.90625 12.9141 0.90625 14.5C0.90625 16.0859 1.17813 17.6266 1.67656 19.0312H27.3234C27.8219 17.6266 28.0938 16.0859 28.0938 14.5C28.0938 12.9141 27.8219 11.3734 27.3234 9.96875H1.67656Z" fill="#0C8AE7"/>
</g>
<defs>
<clipPath id="clip0_323_226">
<rect width="29" height="29" fill="white"/>
</clipPath>
</defs>
</svg>
