<svg width="28" height="27" viewBox="0 0 28 27" fill="none" xmlns="http://www.w3.org/2000/svg">
<path d="M17.643 15.6568L20.0161 8.88574C20.2428 8.24238 20.1743 7.53047 19.8262 6.94512L18.2811 4.33477V0.548437C18.2811 0.247852 18.0333 0 17.7274 0C17.4215 0 17.179 0.247852 17.179 0.548437V3.92871H8.67818V0.548437C8.67818 0.247852 8.43033 0 8.12974 0C7.82388 0 7.5813 0.247852 7.5813 0.548437V4.33477L6.03619 6.94512C5.68814 7.53574 5.61958 8.24238 5.84634 8.88574L8.21939 15.6568C8.54107 16.5797 9.41646 17.202 10.3973 17.202H10.5872C10.8403 18.7893 11.6735 20.3027 13.1131 21.2941C13.5719 21.6105 14.0202 21.6949 14.1573 22.3172C14.3313 23.1293 13.7459 23.8412 12.9444 23.952C12.0215 24.1102 11.0565 23.4035 10.9458 22.275C10.893 21.716 10.4448 21.2889 9.88579 21.252C9.25826 21.2098 8.71509 21.6844 8.6729 22.3119C8.50943 24.8115 10.5555 26.9789 13.092 26.9947C13.1448 26.9947 13.1922 27 13.245 27C15.8606 27 18.0702 24.7271 17.97 21.9691C17.9383 20.598 17.3055 19.227 16.2614 18.3041C15.9608 18.0246 15.5547 17.877 15.4018 17.2072C15.4229 17.1914 17.0735 17.2811 17.643 15.6568ZM9.25298 15.293L6.87994 8.52188C6.76392 8.18438 6.80083 7.81523 6.98013 7.50937L8.44615 5.03086H17.411L18.877 7.50937C19.0616 7.81523 19.0985 8.18438 18.9772 8.52188L16.6042 15.293C16.4354 15.7781 15.9766 16.0998 15.4651 16.0998H10.392C9.88052 16.0998 9.42173 15.7781 9.25298 15.293ZM15.5178 19.1215C16.3352 19.8492 16.8362 20.9197 16.8573 22.0008C16.9364 24.184 15.1645 25.9717 13.1079 25.8979C11.1461 25.8873 9.64849 24.2156 9.76451 22.391C9.76451 22.3752 9.7856 22.3594 9.80142 22.3594C9.82251 22.3594 9.83306 22.3805 9.83833 22.4121C10.0071 24.1418 11.5627 25.3125 13.0973 25.0488C14.4948 24.859 15.5336 23.5512 15.2225 22.0904C15.0063 21.0727 14.3524 20.8248 13.7249 20.3871C12.6227 19.633 11.9424 18.4834 11.6946 17.202H14.2733C14.4315 18.2988 14.9588 18.6521 15.5178 19.1215Z" fill="#2F92EE"/>
<path d="M16.5471 10.5679C16.5471 8.56929 14.9229 6.94507 12.9242 6.94507C10.9309 6.94507 9.30664 8.56929 9.30664 10.5679C9.30664 12.5666 10.9309 14.1908 12.9242 14.1908C14.9229 14.1855 16.5471 12.5613 16.5471 10.5679ZM12.9295 13.0834C11.5426 13.0834 10.4141 11.9548 10.4141 10.5626C10.4141 9.17573 11.5426 8.04194 12.9295 8.04194C14.3164 8.04194 15.4502 9.17046 15.4502 10.5626C15.4449 11.9548 14.3164 13.0834 12.9295 13.0834Z" fill="#2F92EE"/>
</svg>
