<svg width="69" height="54" viewBox="0 0 69 54" fill="none" xmlns="http://www.w3.org/2000/svg">
<path d="M60.7132 0.48124H48.9932C48.9897 0.48124 48.9869 0.479126 48.9834 0.479126H36.7417C36.7382 0.479126 36.7354 0.48124 36.7318 0.48124H10.0352C8.73772 0.48124 7.68555 1.53341 7.68555 2.83088C7.68555 4.12836 8.73772 5.18053 10.0352 5.18053H34.3921V19.3235C34.3921 20.6158 35.4494 21.6731 36.7417 21.6731H48.9834C50.2757 21.6731 51.333 20.6158 51.333 19.3235V5.18053H60.7132C62.3044 5.18053 63.5986 6.47471 63.5986 8.06589V45.2427C63.5986 46.8338 62.3044 48.128 60.7132 48.128H23.5365C21.9462 48.128 20.6523 46.8338 20.6523 45.2427V19.4149C20.6523 18.1174 19.6001 17.0653 18.3026 17.0653H12.0902C10.7927 17.0653 9.74055 18.1174 9.74055 19.4149C9.74055 20.7124 10.7927 21.7645 12.0902 21.7645H15.953V45.2427C15.953 49.4246 19.3548 52.8273 23.5365 52.8273H60.7132C64.8951 52.8273 68.2979 49.4246 68.2979 45.2427V8.06612C68.2979 3.88423 64.8951 0.48124 60.7132 0.48124ZM46.6337 16.9739H39.0914V5.18053H46.6337V16.9739Z" fill="black" stroke="white" stroke-width="0.5"/>
<path d="M2.64847 13.4698H17.1467C18.4442 13.4698 19.4964 12.4176 19.4964 11.1202C19.4964 9.82268 18.4442 8.77051 17.1467 8.77051H2.64847C1.351 8.77051 0.298828 9.82268 0.298828 11.1202C0.298828 12.4176 1.35076 13.4698 2.64847 13.4698Z" fill="black" stroke="white" stroke-width="0.5"/>
<path d="M56.3106 43.6789C57.6081 43.6789 58.6603 42.6267 58.6603 41.3293C58.6603 40.0318 57.6081 38.9796 56.3106 38.9796H48.9727C47.6752 38.9796 46.623 40.0318 46.623 41.3293C46.623 42.6267 47.6752 43.6789 48.9727 43.6789H56.3106Z" fill="#FF001A" stroke="white" stroke-width="0.5"/>
</svg>
