<svg width="31" height="31" viewBox="0 0 31 31" fill="none" xmlns="http://www.w3.org/2000/svg">
<g clip-path="url(#clip0_323_338)">
<path d="M28.6682 8.41109L28.6672 8.38696C28.6537 8.08919 28.6447 7.77416 28.6393 7.42365C28.614 5.71439 27.2552 4.30053 25.5457 4.20498C21.9815 4.00608 19.2243 2.84386 16.8684 0.547581L16.8483 0.528424C16.0799 -0.176141 14.9207 -0.176141 14.1521 0.528424L14.132 0.547581C11.7761 2.84386 9.01885 4.00608 5.45464 4.20522C3.74538 4.30053 2.38639 5.71439 2.36108 7.42389C2.35588 7.77203 2.34665 8.08707 2.33317 8.38696L2.33175 8.44301C2.26246 12.0775 2.17637 16.6007 3.68956 20.7063C4.52161 22.9641 5.78173 24.9266 7.43471 26.5399C9.31733 28.3771 11.7832 29.8356 14.7637 30.8749C14.8607 30.9087 14.9614 30.9361 15.0641 30.9567C15.2088 30.9855 15.3545 31 15.5002 31C15.6459 31 15.7918 30.9855 15.9363 30.9567C16.039 30.9361 16.1404 30.9084 16.2379 30.8744C19.2148 29.8333 21.6781 28.374 23.5591 26.537C25.2113 24.9233 26.4714 22.9603 27.3042 20.7021C28.8231 16.5842 28.7372 12.0524 28.6682 8.41109ZM25.5975 20.0727C24.0016 24.3999 20.7436 27.3717 15.6376 29.1573C15.6194 29.1635 15.6 29.1689 15.5799 29.1729C15.5272 29.1833 15.4735 29.1833 15.42 29.1727C15.4001 29.1687 15.3808 29.1635 15.3628 29.1573C10.2513 27.375 6.99125 24.4049 5.39646 20.0774C4.00175 16.293 4.08075 12.1409 4.15052 8.47778L4.15099 8.45744C4.16518 8.14264 4.17464 7.81295 4.17985 7.45062C4.1912 6.69165 4.79572 6.06372 5.5561 6.02138C7.57306 5.9088 9.345 5.51903 10.9731 4.82984C12.5992 4.1416 14.0433 3.17143 15.3876 1.864C15.456 1.80629 15.5447 1.80605 15.6128 1.864C16.9573 3.17143 18.4015 4.1416 20.0272 4.82984C21.6554 5.51903 23.4273 5.9088 25.4445 6.02138C26.2049 6.06372 26.8094 6.69165 26.8205 7.45085C26.826 7.81508 26.8354 8.14477 26.8496 8.45744C26.9192 12.1248 26.9963 16.2803 25.5975 20.0727Z" fill="black" stroke="black" stroke-width="0.56"/>
<path d="M17.7204 13.1021L14.1321 16.6904L13.1581 15.7164C12.8029 15.3612 12.227 15.3612 11.8717 15.7164C11.5167 16.0717 11.5167 16.6476 11.8717 17.0026L13.489 18.6198C13.6666 18.7975 13.8993 18.8862 14.1321 18.8862C14.3648 18.8862 14.5975 18.7975 14.7751 18.6198L19.0068 14.3882C19.3618 14.033 19.3618 13.4571 19.0068 13.1021C18.6515 12.7466 18.0756 12.7466 17.7204 13.1021Z" fill="#FF001A"/>
</g>
<defs>
<clipPath id="clip0_323_338">
<rect width="31" height="31" fill="white"/>
</clipPath>
</defs>
</svg>
