<svg width="29" height="28" viewBox="0 0 29 28" fill="none" xmlns="http://www.w3.org/2000/svg">
<path d="M26.7211 20.1075C27.4241 20.1075 27.994 19.5392 27.994 18.8382C27.994 18.1371 27.4241 17.5688 26.7211 17.5688C26.0181 17.5688 25.4482 18.1371 25.4482 18.8382C25.4482 19.5392 26.0181 20.1075 26.7211 20.1075Z" fill="black"/>
<path d="M23.9446 24.1961C24.6476 24.1961 25.2175 23.6278 25.2175 22.9268C25.2175 22.2258 24.6476 21.6575 23.9446 21.6575C23.2416 21.6575 22.6718 22.2258 22.6718 22.9268C22.6718 23.6278 23.2416 24.1961 23.9446 24.1961Z" fill="black"/>
<path d="M27.6781 15.2369C28.3811 15.2369 28.951 14.6686 28.951 13.9676C28.951 13.2665 28.3811 12.6982 27.6781 12.6982C26.9752 12.6982 26.4053 13.2665 26.4053 13.9676C26.4053 14.6686 26.9752 15.2369 27.6781 15.2369Z" fill="black"/>
<path d="M19.8227 26.9694C20.5257 26.9694 21.0955 26.4011 21.0955 25.7001C21.0955 24.9991 20.5257 24.4308 19.8227 24.4308C19.1197 24.4308 18.5498 24.9991 18.5498 25.7001C18.5498 26.4011 19.1197 26.9694 19.8227 26.9694Z" fill="black"/>
<path d="M14.9537 25.3865C13.1204 25.3887 11.3134 24.9521 9.68442 24.1134C8.05543 23.2747 6.65209 22.0584 5.59229 20.5666C4.53249 19.0749 3.84718 17.3512 3.59395 15.5406C3.34071 13.7299 3.52694 11.8851 4.13699 10.1611C4.74705 8.4371 5.7631 6.88429 7.0998 5.63311C8.4365 4.38194 10.0548 3.46895 11.8187 2.97085C13.5827 2.47274 15.4407 2.40408 17.2368 2.77063C19.0328 3.13717 20.7144 3.92821 22.1403 5.0773H20.0452C19.7076 5.0773 19.3839 5.21103 19.1451 5.44908C18.9064 5.68712 18.7723 6.00998 18.7723 6.34662C18.7723 6.68327 18.9064 7.00613 19.1451 7.24417C19.3839 7.48222 19.7076 7.61595 20.0452 7.61595H25.1367C25.4742 7.61595 25.798 7.48222 26.0367 7.24417C26.2754 7.00613 26.4095 6.68327 26.4095 6.34662V1.26932C26.4095 0.932679 26.2754 0.609821 26.0367 0.371777C25.798 0.133732 25.4742 0 25.1367 0C24.7991 0 24.4753 0.133732 24.2366 0.371777C23.9979 0.609821 23.8638 0.932679 23.8638 1.26932V3.21266C22.1329 1.78562 20.083 0.794941 17.8873 0.324312C15.6915 -0.146316 13.4145 -0.0830739 11.2484 0.508698C9.08237 1.10047 7.09094 2.20339 5.44235 3.72429C3.79376 5.2452 2.53643 7.13942 1.77656 9.24695C1.01669 11.3545 0.776601 13.6134 1.07657 15.833C1.37654 18.0525 2.20776 20.1675 3.50002 21.9992C4.79228 23.831 6.50762 25.3257 8.50116 26.3571C10.4947 27.3885 12.7079 27.9263 14.9537 27.9251C15.2913 27.9251 15.6151 27.7914 15.8538 27.5534C16.0925 27.3153 16.2266 26.9925 16.2266 26.6558C16.2266 26.3192 16.0925 25.9963 15.8538 25.7583C15.6151 25.5202 15.2913 25.3865 14.9537 25.3865Z" fill="black"/>
<path d="M19.6719 18.6681C19.9105 18.43 20.0446 18.1072 20.0446 17.7706C20.0446 17.4341 19.9105 17.1113 19.6719 16.8732L16.2263 13.4372V6.34672C16.2263 6.01007 16.0922 5.68721 15.8535 5.44917C15.6148 5.21112 15.291 5.07739 14.9534 5.07739C14.6158 5.07739 14.2921 5.21112 14.0534 5.44917C13.8146 5.68721 13.6805 6.01007 13.6805 6.34672V13.9627C13.6806 14.2993 13.8148 14.6221 14.0535 14.8601L17.8721 18.6681C18.1108 18.906 18.4345 19.0397 18.772 19.0397C19.1095 19.0397 19.4332 18.906 19.6719 18.6681Z" fill="#FF001A"/>
</svg>
