<svg width="68" height="55" viewBox="0 0 68 55" fill="none" xmlns="http://www.w3.org/2000/svg">
<path d="M49.7079 9.47085C50.124 8.63522 50.3594 7.69447 50.3594 6.69922C50.3594 3.25835 47.56 0.458984 44.1191 0.458984C40.6783 0.458984 37.8789 3.25835 37.8789 6.69922C37.8789 7.69447 38.1142 8.63522 38.5304 9.47085C28.6065 11.9714 21.2383 20.9709 21.2383 31.6602C21.2383 44.2767 31.5026 54.541 44.1191 54.541C56.7356 54.541 67 44.2767 67 31.6602C67 20.9709 59.6318 11.9714 49.7079 9.47085ZM42.0391 6.69922C42.0391 5.55226 42.9722 4.61914 44.1191 4.61914C45.2661 4.61914 46.1992 5.55226 46.1992 6.69922C46.1992 7.84617 45.2661 8.7793 44.1191 8.7793C42.9722 8.7793 42.0391 7.84617 42.0391 6.69922ZM46.1992 50.2647V48.3008C46.1992 47.152 45.2679 46.2207 44.1191 46.2207C42.9704 46.2207 42.0391 47.152 42.0391 48.3008V50.2647C33.375 49.3024 26.4769 42.4043 25.5146 33.7402H27.4785C28.6273 33.7402 29.5586 32.8089 29.5586 31.6602C29.5586 30.5114 28.6273 29.5801 27.4785 29.5801H25.5146C26.4769 20.916 33.375 14.0179 42.0391 13.0557V15.0195C42.0391 16.1683 42.9704 17.0996 44.1191 17.0996C45.2679 17.0996 46.1992 16.1683 46.1992 15.0195V13.0557C54.8633 14.0179 61.7614 20.9161 62.7236 29.5801H60.7598C59.611 29.5801 58.6797 30.5114 58.6797 31.6602C58.6797 32.8089 59.611 33.7402 60.7598 33.7402H62.7236C61.7614 42.4043 54.8633 49.3024 46.1992 50.2647Z" fill="black" stroke="white" stroke-width="0.3"/>
<path d="M14.998 21.2598H6.40039C5.25163 21.2598 4.32031 22.1911 4.32031 23.3398C4.32031 24.4886 5.25163 25.4199 6.40039 25.4199H14.998C16.1468 25.4199 17.0781 24.4886 17.0781 23.3398C17.0781 22.1911 16.1468 21.2598 14.998 21.2598Z" fill="black" stroke="white" stroke-width="0.3"/>
<path d="M14.998 33.7402H2.24023C1.09148 33.7402 0.160156 34.6716 0.160156 35.8203C0.160156 36.9691 1.09148 37.9004 2.24023 37.9004H14.998C16.1468 37.9004 17.0781 36.9691 17.0781 35.8203C17.0781 34.6716 16.1468 33.7402 14.998 33.7402Z" fill="black" stroke="white" stroke-width="0.3"/>
<path d="M52.4395 29.5801H46.1992V23.3398C46.1992 22.1911 45.2679 21.2598 44.1191 21.2598C42.9704 21.2598 42.0391 22.1911 42.0391 23.3398V31.6602C42.0391 32.8089 42.9704 33.7402 44.1191 33.7402H52.4395C53.5882 33.7402 54.5195 32.8089 54.5195 31.6602C54.5195 30.5114 53.5882 29.5801 52.4395 29.5801Z" fill="#FF001A" stroke="white" stroke-width="0.3"/>
</svg>
