<svg width="34" height="34" viewBox="0 0 34 34" fill="none" xmlns="http://www.w3.org/2000/svg">
<path d="M20.125 28V31.75C20.125 32.4404 19.5654 33 18.875 33H16.375C14.3071 33 12.625 31.3179 12.625 29.25V28.6204C12.625 28.4548 12.5208 28.3047 12.3591 28.238L12.3428 28.2312C12.3406 28.2305 12.3384 28.2295 12.3364 28.2285C12.1741 28.1611 11.9937 28.1934 11.8767 28.3105L11.4314 28.7559C9.96948 30.2178 7.59033 30.2178 6.12817 28.7559L5.24414 27.8718C4.53589 27.1636 4.146 26.2219 4.146 25.2202C4.146 24.2185 4.53589 23.2769 5.24438 22.5686L5.68945 22.1233C5.8064 22.0063 5.83862 21.8259 5.77148 21.6638L5.76123 21.6394C5.69531 21.4792 5.54517 21.375 5.37964 21.375H4.75C2.68213 21.375 1 19.6929 1 17.625V16.375C1 14.3071 2.68213 12.625 4.75 12.625H5.37964C5.54517 12.625 5.69531 12.5208 5.76196 12.3594L5.77148 12.3367C5.83887 12.1741 5.80664 11.9939 5.68945 11.8767L5.24438 11.4316C4.53613 10.7234 4.146 9.78174 4.146 8.78003C4.146 7.77832 4.53613 6.83643 5.24438 6.12817L6.12817 5.24438C6.83643 4.53613 7.77808 4.146 8.77979 4.146C9.78149 4.146 10.7231 4.53613 11.4316 5.24438L11.8767 5.68945C11.9939 5.80664 12.1743 5.83862 12.3364 5.77148C12.3384 5.77051 12.3406 5.76978 12.3428 5.7688L12.3635 5.76025C12.5208 5.69531 12.6252 5.54517 12.6252 5.37964V4.75C12.6252 2.68213 14.3074 1 16.3752 1H18.8752C19.5654 1 20.1252 1.55957 20.1252 2.25V6C20.1252 6.69043 19.5654 7.25 18.8752 7.25C18.1848 7.25 17.6252 6.69043 17.6252 6V3.5H16.3752C15.6858 3.5 15.1252 4.06079 15.1252 4.75V5.37964C15.1252 6.56104 14.4141 7.61816 13.3137 8.07251L13.2935 8.08105C12.1938 8.53711 10.9441 8.29224 10.1091 7.45728L9.66382 7.01221C9.42773 6.77588 9.11377 6.646 8.78003 6.646C8.44604 6.646 8.13232 6.77588 7.89624 7.01221L7.01221 7.896C6.77612 8.13208 6.64624 8.44604 6.64624 8.78003C6.64624 9.11377 6.77612 9.42773 7.01221 9.66382L7.45728 10.1089C8.29272 10.9443 8.53735 12.1951 8.08032 13.2954L8.07349 13.3123C7.61816 14.4138 6.56128 15.125 5.37964 15.125H4.75C4.06079 15.125 3.5 15.6858 3.5 16.375V17.625C3.5 18.3142 4.06079 18.875 4.75 18.875H5.37964C6.56104 18.875 7.61816 19.5862 8.07251 20.6865L8.08179 20.7085C8.53711 21.8049 8.29272 23.0557 7.45728 23.8911L7.01196 24.3362C6.77588 24.5723 6.646 24.8862 6.646 25.2202C6.646 25.554 6.77588 25.8679 7.01196 26.104L7.896 26.988C8.3833 27.4753 9.17627 27.4753 9.66382 26.988L10.1089 26.5427C10.9438 25.708 12.1936 25.4631 13.2935 25.9192L13.3096 25.9258C14.4141 26.3818 15.125 27.439 15.125 28.6204V29.25C15.125 29.9392 15.6858 30.5 16.375 30.5H17.625V28C17.625 27.3096 18.1846 26.75 18.875 26.75C19.5654 26.75 20.125 27.3096 20.125 28ZM30.8125 25.0625C30.6565 25.0625 30.5044 25.0791 30.3577 25.1101L27.3152 22.1099C27.0813 21.8794 26.7661 21.75 26.4375 21.75H17C14.3809 21.75 12.25 19.6191 12.25 17C12.25 14.3809 14.3809 12.25 17 12.25H26.4375C26.769 12.25 27.0869 12.1184 27.3213 11.884L30.3743 8.83105C30.5159 8.85986 30.6624 8.875 30.8125 8.875C32.0205 8.875 33 7.89575 33 6.6875C33 5.47949 32.0205 4.5 30.8125 4.5C29.6045 4.5 28.625 5.47949 28.625 6.6875C28.625 6.80054 28.6335 6.91138 28.6501 7.01978L25.9197 9.75H17C13.0024 9.75 9.75 13.0022 9.75 17C9.75 20.9978 13.0024 24.25 17 24.25H25.9248L28.6479 26.9353C28.6331 27.0381 28.625 27.1431 28.625 27.25C28.625 28.458 29.6045 29.4375 30.8125 29.4375C32.0205 29.4375 33 28.458 33 27.25C33 26.042 32.0205 25.0625 30.8125 25.0625Z" fill="black" stroke="#F5F7F9" stroke-width="0.3"/>
<path d="M29.0178 15.75C29.4131 15.1836 30.0693 14.8125 30.8125 14.8125C32.0205 14.8125 33 15.792 33 17C33 18.208 32.0205 19.1875 30.8125 19.1875C30.0693 19.1875 29.4131 18.8164 29.0178 18.25H19.2947C18.8994 18.8164 18.2432 19.1875 17.5 19.1875C16.292 19.1875 15.3125 18.208 15.3125 17C15.3125 15.792 16.292 14.8125 17.5 14.8125C18.2432 14.8125 18.8994 15.1836 19.2947 15.75H29.0178Z" fill="#FF001A" stroke="#F5F7F9" stroke-width="0.3"/>
</svg>
