<svg width="59" height="67" viewBox="0 0 59 67" fill="none" xmlns="http://www.w3.org/2000/svg">
<path d="M55.779 60.9219H31.1502V55.2614L54.742 43.6493C56.0001 43.03 56.5181 41.5081 55.8988 40.25C55.2794 38.9921 53.7578 38.4741 52.4995 39.0932L31.1211 49.6158C30.7937 45.7153 27.5167 42.6408 23.5331 42.6408C19.3749 42.6408 15.9863 45.9906 15.9191 50.1331C9.91413 47.9228 5.75974 42.127 5.75974 35.5632C5.75974 31.4177 7.37406 27.5203 10.3055 24.5889C12.2676 22.6269 16.4091 20.1508 19.0205 18.711L29.8936 38.7725C30.2146 39.3649 30.7579 39.8053 31.4039 39.997C31.6404 40.0671 31.8835 40.1017 32.1258 40.1017C32.5454 40.1017 32.9623 39.9978 33.3376 39.794L42.2641 34.9466C42.8565 34.625 43.2966 34.0812 43.4876 33.4347C43.6785 32.7883 43.6046 32.0926 43.2822 31.5007L28.2869 3.97515C27.6173 2.74575 26.0787 2.2905 24.8478 2.95738L22.6466 4.14997L21.725 2.37137C21.08 1.12647 19.5477 0.640243 18.3026 1.28491C17.0575 1.93008 16.571 3.46227 17.2162 4.70742L18.1809 6.56943L15.976 7.76405C15.3839 8.08486 14.9433 8.62783 14.7515 9.27339C14.5597 9.91894 14.6323 10.6143 14.9531 11.2064L16.6011 14.2471C14.0468 15.6521 9.264 18.4487 6.71455 20.9981C2.82409 24.8885 0.681641 30.0612 0.681641 35.5631C0.681641 44.4803 6.46216 52.3289 14.7415 55.0998C12.9636 58.5519 9.35033 60.9218 5.18845 60.9218H3.47459C2.07228 60.9218 0.935545 62.0585 0.935545 63.4609C0.935545 64.8632 2.07228 65.9999 3.47459 65.9999H55.779C57.1813 65.9999 58.318 64.8632 58.318 63.4609C58.318 62.0585 57.1813 60.9219 55.779 60.9219ZM33.1474 34.1187L30.8933 29.9595L35.3434 27.543L37.6066 31.6974L33.1474 34.1187ZM25.0396 8.62898L32.9142 23.0836L28.4735 25.495L20.6279 11.0192L25.0396 8.62898ZM26.0721 60.9219H16.8051C19.4043 58.1154 20.994 54.3681 20.994 50.2579C20.994 48.8579 22.133 47.7189 23.5331 47.7189C24.9331 47.7189 26.0721 48.8579 26.0721 50.2579V60.9219Z" fill="black" stroke="white"/>
<circle cx="40" cy="40" r="2" fill="#FF001A"/>
</svg>
