<svg width="62" height="62" viewBox="0 0 62 62" fill="none" xmlns="http://www.w3.org/2000/svg">
<g clip-path="url(#clip0_327_63)">
<path d="M30.9999 0.000488281C13.9052 0.000488281 0 13.9068 0 31.0006C0 48.0943 13.9052 61.9995 30.9999 61.9995C48.0937 61.9995 61.9989 48.0943 61.9999 31.0006C62 13.9068 48.0948 0.000488281 30.9999 0.000488281ZM30.9999 58.0328C16.0943 58.0328 3.96769 45.9062 3.96769 31.0006C3.96769 16.0949 16.0943 3.96818 30.9999 3.96818C45.9056 3.96818 58.0322 16.0948 58.0322 31.0004C58.0322 45.9061 45.9057 58.0328 30.9999 58.0328Z" fill="black"/>
<path d="M34.0753 18.4103H27.5093C26.6629 18.4103 25.9774 19.0958 25.9774 19.9422V29.6875H24.0554C23.2089 29.6875 22.5234 30.373 22.5234 31.2194C22.5234 32.0658 23.2089 32.7522 24.0554 32.7522H25.9774V34.8634H24.0554C23.2089 34.8634 22.5234 35.5498 22.5234 36.3962C22.5234 37.2426 23.2089 37.929 24.0554 37.929H25.9774V40.9564C25.9774 41.8028 26.6629 42.4892 27.5093 42.4892C28.3557 42.4892 29.0412 41.8021 29.0412 40.9564V37.9291H37.4404C38.2861 37.9291 38.9724 37.2428 38.9724 36.3963C38.9724 35.5498 38.2869 34.8635 37.4404 34.8635H29.0412V32.7523H34.0761C36.6354 32.7523 38.794 32.0328 40.3193 30.6718C41.7409 29.4038 42.5234 27.6636 42.5234 25.7723C42.5234 22.2036 39.5616 18.4103 34.0753 18.4103ZM38.2778 28.3854C37.3234 29.2377 35.8703 29.6875 34.0753 29.6875H29.0412V21.4734H34.0753C37.6088 21.4734 39.4586 23.6352 39.4586 25.7713C39.4587 26.7771 39.0396 27.7057 38.2778 28.3854Z" fill="#FF001A"/>
</g>
<defs>
<clipPath id="clip0_327_63">
<rect width="62" height="62" fill="white"/>
</clipPath>
</defs>
</svg>
