<svg width="27" height="31" viewBox="0 0 27 31" fill="none" xmlns="http://www.w3.org/2000/svg">
<path d="M8.60873 13.8215V6.70327H7.38513C7.12748 6.70327 6.88039 6.6012 6.6982 6.41953C6.51602 6.23785 6.41367 5.99144 6.41367 5.73452V0.96875C6.41367 0.711821 6.51602 0.465416 6.6982 0.28374C6.88039 0.102064 7.12748 0 7.38513 0L19.5404 0C19.7981 0 20.0452 0.102064 20.2274 0.28374C20.4095 0.465416 20.5119 0.711821 20.5119 0.96875V5.73452C20.5119 5.99144 20.4095 6.23785 20.2274 6.41953C20.0452 6.6012 19.7981 6.70327 19.5404 6.70327H18.3168V13.8216L26.1281 27.3136C26.3444 27.6872 26.4583 28.111 26.4583 28.5424C26.4583 28.9738 26.3444 29.3976 26.1281 29.7712C25.9118 30.1448 25.6007 30.455 25.2261 30.6707C24.8514 30.8864 24.4265 31 23.9939 31H2.93168C2.49908 31 2.07411 30.8864 1.69947 30.6707C1.32484 30.455 1.01374 30.1448 0.797445 29.7712C0.581151 29.3976 0.467283 28.9738 0.467285 28.5424C0.467288 28.111 0.581161 27.6872 0.79746 27.3136L8.60873 13.8215ZM8.35658 4.76577H18.569V1.9375H8.35658V4.76577ZM10.5518 6.70327V14.0811C10.5518 14.2511 10.507 14.4182 10.4217 14.5655L2.48008 28.2824C2.4343 28.3614 2.41021 28.4511 2.4102 28.5424C2.4102 28.6337 2.43429 28.7234 2.48006 28.8024C2.52583 28.8815 2.59166 28.9471 2.67093 28.9928C2.75021 29.0384 2.84014 29.0625 2.93168 29.0625H23.994C24.0855 29.0625 24.1755 29.0385 24.2548 28.9928C24.3341 28.9472 24.3999 28.8815 24.4457 28.8024C24.4914 28.7234 24.5155 28.6337 24.5155 28.5424C24.5155 28.4511 24.4914 28.3614 24.4457 28.2824L16.504 14.5655C16.4188 14.4183 16.3739 14.2512 16.3739 14.0811V6.70327H10.5518Z" fill="black"/>
<path d="M13.735 17.5662C13.6683 17.8143 13.7032 18.0788 13.8321 18.3013L18.5716 26.4876C18.6354 26.5978 18.7203 26.6943 18.8215 26.7718C18.9227 26.8492 19.0382 26.906 19.1615 26.9389C19.2847 26.9719 19.4132 26.9803 19.5397 26.9637C19.6662 26.9471 19.7881 26.9058 19.8986 26.8422C20.0091 26.7786 20.1059 26.6939 20.1836 26.5929C20.2613 26.492 20.3182 26.3768 20.3513 26.2539C20.3843 26.1311 20.3927 26.0029 20.3761 25.8768C20.3594 25.7506 20.318 25.629 20.2542 25.5188L15.5147 17.3325C15.3859 17.11 15.1737 16.9477 14.9248 16.8812C14.6759 16.8147 14.4108 16.8495 14.1876 16.9779C13.9645 17.1064 13.8017 17.318 13.735 17.5662Z" fill="#FF001A"/>
</svg>
