<svg width="59" height="55" viewBox="0 0 59 55" fill="none" xmlns="http://www.w3.org/2000/svg">
<path fill-rule="evenodd" clip-rule="evenodd" d="M27.0938 27.5C27.0938 26.1711 28.1711 25.0938 29.5 25.0938H55.9688C57.2976 25.0938 58.375 26.1711 58.375 27.5C58.375 28.8289 57.2976 29.9062 55.9688 29.9062H29.5C28.1711 29.9062 27.0938 28.8289 27.0938 27.5Z" fill="black" stroke="white" stroke-width="0.2"/>
<path fill-rule="evenodd" clip-rule="evenodd" d="M27.0938 8.25C27.0938 6.92108 28.1711 5.84375 29.5 5.84375H55.9688C57.2976 5.84375 58.375 6.92108 58.375 8.25C58.375 9.57892 57.2976 10.6562 55.9688 10.6562H29.5C28.1711 10.6562 27.0938 9.57892 27.0938 8.25Z" fill="black" stroke="white" stroke-width="0.2"/>
<path fill-rule="evenodd" clip-rule="evenodd" d="M27.0938 46.75C27.0938 45.4211 28.1711 44.3438 29.5 44.3438H55.9688C57.2976 44.3438 58.375 45.4211 58.375 46.75C58.375 48.0789 57.2976 49.1562 55.9688 49.1562H29.5C28.1711 49.1562 27.0938 48.0789 27.0938 46.75Z" fill="black" stroke="white" stroke-width="0.2"/>
<path fill-rule="evenodd" clip-rule="evenodd" d="M20.4408 1.80625C21.3417 2.78319 21.2801 4.30548 20.3032 5.20641L9.86603 14.8314C8.94357 15.6821 7.52222 15.6811 6.60098 14.8291L1.39744 10.0166C0.421823 9.11423 0.362372 7.59184 1.26472 6.61622C2.16703 5.64056 3.68945 5.58111 4.66507 6.48346L8.23713 9.78711L17.0406 1.66861C18.0176 0.767682 19.5399 0.829314 20.4408 1.80625Z" fill="#FF001A" stroke="white" stroke-width="0.2"/>
<path fill-rule="evenodd" clip-rule="evenodd" d="M20.4408 21.0563C21.3417 22.0333 21.2801 23.5554 20.3032 24.4563L9.86603 34.0816C8.94357 34.9321 7.52222 34.9311 6.60098 34.079L1.39744 29.2665C0.421823 28.3643 0.362372 26.842 1.26472 25.8663C2.16703 24.8907 3.68945 24.831 4.66507 25.7335L8.23713 29.0371L17.0406 20.9186C18.0176 20.0177 19.5399 20.0793 20.4408 21.0563Z" fill="black" stroke="white" stroke-width="0.2"/>
<path fill-rule="evenodd" clip-rule="evenodd" d="M20.4408 40.3064C21.3417 41.2833 21.2801 42.8053 20.3032 43.7062L9.86603 53.3316C8.94357 54.1821 7.52222 54.1811 6.60098 53.329L1.39744 48.5165C0.421823 47.6143 0.362372 46.092 1.26472 45.1163C2.16703 44.1406 3.68945 44.081 4.66507 44.9835L8.23713 48.2871L17.0406 40.1687C18.0176 39.2678 19.5399 39.3294 20.4408 40.3064Z" fill="black" stroke="white" stroke-width="0.2"/>
</svg>
