<svg width="60" height="60" viewBox="0 0 60 60" fill="none" xmlns="http://www.w3.org/2000/svg">
<g clip-path="url(#clip0_326_5551)">
<path d="M55.4868 16.2794L55.4849 16.2327C55.4588 15.6564 55.4414 15.0466 55.4309 14.3682C55.3819 11.06 52.7521 8.32349 49.4434 8.13855C42.5449 7.75357 37.2083 5.50413 32.6485 1.05971L32.6096 1.02263C31.1223 -0.341041 28.8789 -0.341041 27.3911 1.02263L27.3522 1.05971C22.7924 5.50413 17.4558 7.75357 10.5574 8.13901C7.24912 8.32349 4.61881 11.06 4.56983 14.3687C4.55976 15.0425 4.54191 15.6523 4.51582 16.2327L4.51307 16.3412C4.37895 23.3756 4.21232 32.1303 7.14108 40.0766C8.75149 44.4464 11.1905 48.2449 14.3898 51.3673C18.0335 54.9232 22.8062 57.7463 28.5749 59.7577C28.7626 59.8231 28.9576 59.8762 29.1563 59.9161C29.4364 59.9719 29.7184 59.9998 30.0004 59.9998C30.2824 59.9998 30.5648 59.9719 30.8445 59.9161C31.0432 59.8762 31.2395 59.8227 31.4281 59.7568C37.19 57.7417 41.9576 54.9173 45.5982 51.3618C48.7961 48.2385 51.2351 44.4391 52.8468 40.0684C55.7866 32.0983 55.6204 23.3271 55.4868 16.2794ZM49.5436 38.8503C46.4546 47.2255 40.149 52.9773 30.2663 56.4334C30.2311 56.4453 30.1935 56.4558 30.1546 56.4636C30.0526 56.4838 29.9486 56.4838 29.8452 56.4632C29.8067 56.4554 29.7692 56.4453 29.7344 56.4334C19.8412 52.9837 13.5314 47.2351 10.4448 38.8594C7.74533 31.5348 7.89822 23.4983 8.03326 16.4085L8.03418 16.3691C8.06165 15.7598 8.07996 15.1217 8.09003 14.4204C8.112 12.9515 9.28204 11.7361 10.7537 11.6542C14.6575 11.4363 18.0871 10.6819 21.2383 9.34796C24.3855 8.01587 27.1806 6.13813 29.7825 3.60762C29.9148 3.49592 30.0864 3.49547 30.2183 3.60762C32.8206 6.13813 35.6157 8.01587 38.7624 9.34796C41.9136 10.6819 45.3432 11.4363 49.2474 11.6542C50.7192 11.7361 51.8892 12.9515 51.9107 14.4209C51.9212 15.1258 51.9395 15.764 51.967 16.3691C52.1016 23.4672 52.2508 31.5101 49.5436 38.8503Z" fill="black" stroke="black" stroke-width="0.56"/>
<path d="M34.2982 25.3587L27.3531 32.3038L25.468 30.4188C24.7804 29.7312 23.6658 29.7312 22.9782 30.4188C22.2911 31.1063 22.2911 32.221 22.9782 32.9081L26.1084 36.0383C26.4522 36.382 26.9026 36.5537 27.3531 36.5537C27.8035 36.5537 28.2539 36.382 28.5977 36.0383L36.788 27.848C37.4751 27.1604 37.4751 26.0458 36.788 25.3587C36.1004 24.6706 34.9858 24.6706 34.2982 25.3587Z" fill="#FF001A"/>
</g>
<defs>
<clipPath id="clip0_326_5551">
<rect width="60" height="60" fill="white"/>
</clipPath>
</defs>
</svg>
