<svg width="29" height="29" viewBox="0 0 29 29" fill="none" xmlns="http://www.w3.org/2000/svg">
<path d="M8.00643 6.5997C7.58819 6.18112 6.90964 6.18112 6.4914 6.5997C4.93855 8.15256 4.17531 10.3158 4.39712 12.5351C4.45246 13.0879 4.91821 13.5001 5.46213 13.5001C5.49787 13.5001 5.53389 13.4982 5.56963 13.4947C6.15858 13.4358 6.5882 12.9104 6.5293 12.3218C6.37144 10.7447 6.91004 9.21111 8.00643 8.11466C8.425 7.69649 8.425 7.01787 8.00643 6.5997Z" fill="#FF001A"/>
<path d="M12.25 0C5.49533 0 0 5.49533 0 12.25C0 19.0047 5.49533 24.5 12.25 24.5C19.0047 24.5 24.5 19.0047 24.5 12.25C24.5 5.49533 19.0046 0 12.25 0ZM12.25 22.3571C6.6768 22.3571 2.14288 17.8232 2.14288 12.25C2.14288 6.6768 6.6768 2.14288 12.25 2.14288C17.8229 2.14288 22.3571 6.6768 22.3571 12.25C22.3571 17.8232 17.8232 22.3571 12.25 22.3571Z" fill="black"/>
<path d="M26.3356 24.0359L20.9012 19.3853C20.4826 18.9668 19.8048 18.9668 19.3862 19.3853C18.9676 19.8036 18.9676 20.4821 19.3862 20.9004L24.8206 25.5509C25.0299 25.7602 25.3038 25.8648 25.5781 25.8648C25.8524 25.8648 26.1263 25.7602 26.3356 25.5509C26.7541 25.1327 26.7541 24.4541 26.3356 24.0359Z" fill="black"/>
</svg>
