<svg width="33" height="33" viewBox="0 0 33 33" fill="none" xmlns="http://www.w3.org/2000/svg">
<path d="M20.0049 9.37915H13.0016C11.0069 9.37915 9.37891 10.9998 9.37891 13.0018V20.0052C9.37891 21.9998 10.9996 23.6278 13.0016 23.6278H20.0049C21.9996 23.6278 23.6276 22.0072 23.6276 20.0052V13.0018C23.6202 10.9998 21.9996 9.37915 20.0049 9.37915ZM16.4996 21.1858C13.9182 21.1858 11.8136 19.0812 11.8136 16.4998C11.8136 13.9185 13.9182 11.8138 16.4996 11.8138C19.0809 11.8138 21.1856 13.9185 21.1856 16.4998C21.1856 19.0812 19.0809 21.1858 16.4996 21.1858ZM21.4202 12.3345C20.9802 12.3345 20.6282 11.9825 20.6282 11.5425C20.6282 11.1025 20.9802 10.7505 21.4202 10.7505C21.8602 10.7505 22.2122 11.1025 22.2122 11.5425C22.2122 11.9825 21.8602 12.3345 21.4202 12.3345Z" fill="white"/>
<path d="M19.3498 16.5355C19.3687 14.964 18.1101 13.6748 16.5386 13.656C14.9672 13.6371 13.678 14.8957 13.6591 16.4672C13.6403 18.0386 14.8989 19.3278 16.4703 19.3466C18.0418 19.3655 19.331 18.1069 19.3498 16.5355Z" fill="white"/>
<path d="M16.5 0C7.38467 0 0 7.38467 0 16.5C0 25.6153 7.38467 33 16.5 33C25.6153 33 33 25.6153 33 16.5C33 7.38467 25.6153 0 16.5 0ZM25.6667 20.0053C25.6667 23.1293 23.1293 25.6667 20.0053 25.6667H13.002C9.878 25.6667 7.34067 23.1293 7.34067 20.0053V13.002C7.34067 9.878 9.878 7.34067 13.002 7.34067H20.0053C23.1293 7.34067 25.6667 9.878 25.6667 13.002V20.0053Z" fill="white"/>
</svg>
