<svg width="165" height="110" viewBox="0 0 165 110" fill="none" xmlns="http://www.w3.org/2000/svg">
<g clip-path="url(#clip0_323_408)">
<path fill-rule="evenodd" clip-rule="evenodd" d="M88.5602 45.7996L91.1459 46.2859L93.4083 35.0995L90.8226 34.6131L88.5602 45.7996ZM116.922 32.2623L116.033 29.7494L126.78 26.1017L127.669 28.6146L116.922 32.2623ZM93.3275 3.24245L91.5499 5.26898L100.115 12.8077L101.893 10.7811L93.3275 3.24245ZM102.862 27.3987L108.519 32.4245L114.175 37.4503L112.72 44.9079L111.266 52.3655L104.074 54.7973L96.8829 57.2292L91.2267 52.2034L85.5704 47.1776L87.0249 39.72L88.4794 32.2623L95.6708 29.8305L102.862 27.3987ZM121.932 5.67428L127.588 10.7001L133.244 15.7259L131.79 23.1835L130.335 30.6411L123.144 33.073L115.952 35.5048L110.296 30.479L104.64 25.4532L106.094 17.9956L107.549 10.538L114.74 8.10612L121.932 5.67428ZM93.6508 0L99.307 5.02579L104.963 10.0516L103.509 17.5092L102.054 24.9668L94.8628 27.3987L87.6713 29.8305L82.0151 24.8047L76.3589 19.7789L77.8133 12.3213L79.3486 4.86367L86.5401 2.43183L93.6508 0Z" fill="white"/>
<path d="M140.759 71.2528H153.526L147.95 99.2189H165L162.98 109.108H133.244L140.759 71.2528ZM110.943 99.7052C112.963 99.7052 114.74 99.2189 116.195 98.1651C117.649 97.1113 118.861 95.7332 119.589 93.9499C120.397 92.1665 120.801 90.2211 120.801 88.1945C120.801 85.9248 120.154 84.1415 118.861 82.8445C117.569 81.5475 115.71 80.818 113.448 80.818C111.427 80.818 109.65 81.3043 108.195 82.3581C106.741 83.4119 105.529 84.79 104.802 86.5733C103.994 88.3567 103.59 90.3021 103.59 92.3287C103.59 94.5984 104.236 96.3817 105.529 97.6787C106.822 98.9757 108.68 99.7052 110.943 99.7052ZM109.892 110C106.014 110 102.701 109.27 99.7918 107.892C96.8829 106.433 94.7012 104.488 93.0852 101.894C91.5499 99.2999 90.7419 96.3817 90.7419 93.0582C90.7419 88.6809 91.7923 84.7089 93.8124 81.3043C95.8325 77.8998 98.6606 75.1437 102.297 73.2793C105.933 71.3338 109.973 70.4421 114.579 70.4421C118.457 70.4421 121.77 71.1717 124.679 72.5497C127.588 74.0088 129.77 75.9543 131.386 78.5483C132.921 81.1422 133.729 84.0604 133.729 87.3839C133.729 91.7612 132.679 95.7332 130.659 99.1378C128.639 102.542 125.81 105.298 122.174 107.163C118.538 109.027 114.417 110 109.892 110ZM91.1459 71.2528L83.6312 109.108H73.1268L62.2992 91.437L58.8246 109.108H46.3809L53.8956 71.2528H64.3192L75.1469 88.9241L78.6214 71.2528H91.1459ZM29.8163 93.3824L27.9578 83.7362L22.3824 93.3824H29.8163ZM31.594 102.542H17.211L13.4133 109.108H-6.10352e-05L24.0793 71.2528H36.6038L45.5729 109.108H32.806L31.594 102.542Z" fill="white"/>
</g>
<defs>
<clipPath id="clip0_323_408">
<rect width="165" height="110" fill="white"/>
</clipPath>
</defs>
</svg>
