<svg width="95" height="81" viewBox="0 0 95 81" fill="none" xmlns="http://www.w3.org/2000/svg">
<path d="M26.3648 29.1903C31.3788 29.1903 35.4581 25.111 35.4581 20.097C35.4581 15.083 31.3788 11.0037 26.3648 11.0037C21.3508 11.0037 17.2715 15.083 17.2715 20.097C17.2715 25.111 21.3508 29.1903 26.3648 29.1903ZM26.3648 16.4668C28.3665 16.4668 29.995 18.0953 29.995 20.097C29.995 22.0987 28.3665 23.7272 26.3648 23.7272C24.3631 23.7272 22.7346 22.0987 22.7346 20.097C22.7346 18.0953 24.3631 16.4668 26.3648 16.4668Z" fill="#FF001A" stroke="white" stroke-width="1.2"/>
<path d="M84.7792 55.697H81.0729C81.1708 55.1709 81.3919 54.5368 81.843 53.8375C83.2317 51.6855 83.5287 49.7848 83.7906 48.1079C83.9557 47.0511 84.1118 46.053 84.5361 44.9014C84.912 43.8812 85.6351 43.0527 86.3755 42.4213L88.9377 48.737L94 46.6833L84.8395 24.0317L82.614 24.482C82.36 24.5333 76.3488 25.8212 72.59 32.7815C69.8466 37.8618 63.6698 41.8064 56.1554 43.387L54.6576 37.8921L51.9867 38.6738C46.8215 40.1855 44.1899 41.5203 38.9046 44.7637C37.0985 45.872 34.6891 46.5525 31.7035 46.8044C33.0319 45.0203 36.6574 40.2292 36.6574 40.2292C40.373 35.3679 45.4619 28.7102 45.4619 20.097C45.4619 9.56685 36.8951 1 26.3649 1C15.8348 1 7.2678 9.56685 7.2678 20.097C7.2678 28.7102 12.3565 35.3679 16.0723 40.2292C16.0723 40.2292 19.4507 44.6909 20.7168 46.3892C16.4427 46.3169 13.1131 47.4672 10.5886 49.8775C7.64385 52.689 6.44506 57.3412 7.392 61.5971L1 65.848L8.55727 79.5153H12.2232L15.0556 76.3278C17.9143 73.111 22.0218 71.2661 26.3251 71.2661C29.9551 71.2661 33.4701 72.5819 36.2227 74.9713C39.3556 77.6907 42.3984 79.215 45.2665 79.5019C45.8095 79.5561 46.3253 79.5809 46.8171 79.5809C49.4778 79.5809 51.4352 78.8596 53.1947 78.2111C55.1778 77.4803 56.7446 76.9031 59.3824 77.2452C60.4969 77.3896 61.5114 77.4587 62.4408 77.4587C67.6537 77.4585 70.1523 75.2845 72.121 72.0542C72.801 70.9385 73.7503 70.294 74.6556 70.0117C76.6603 69.3866 79.2014 72.0433 79.2014 72.0433L84.3627 69.5064C85.2811 72.0338 85.7476 74.6772 85.7476 77.3756H91.2107C91.2107 73.7299 90.5242 70.1649 89.1706 66.7798L84.7792 55.697ZM26.3648 6.46309C33.8825 6.46309 39.9986 12.5792 39.9986 20.097C39.9986 26.8615 35.7392 32.4341 32.3168 36.9116C32.3168 36.9116 27.8325 42.8505 26.3646 44.8293C24.8966 42.8505 20.4124 36.9116 20.4124 36.9116C16.9899 32.4341 12.7305 26.8615 12.7305 20.097C12.7309 12.5792 18.847 6.46309 26.3648 6.46309ZM79.6628 65.7289C77.1937 64.3731 75.0556 64.3664 73.6061 64.6501C71.1381 65.1332 68.9541 66.753 67.4563 69.2109C66.3739 70.9873 65.4382 72.5215 60.085 71.8273C56.1135 71.3127 53.5597 72.2542 51.3056 73.0849C49.4809 73.7574 48.0396 74.2888 45.8101 74.0657C44.1122 73.896 42.0353 72.7823 39.8038 70.8454C36.0576 67.5936 31.2708 65.8026 26.3251 65.8026C20.4806 65.8026 14.9012 68.3005 11.0082 72.6579L8.21656 67.6093L14.012 63.7551L13.1259 61.6683C11.8187 58.5902 12.7866 55.3317 14.3611 53.8284C16.1666 52.1046 18.7161 51.5372 22.6273 51.9885C31.094 52.9653 37.353 52.125 41.7619 49.4195C45.6873 47.0107 47.8518 45.8225 50.8678 44.7615L52.1702 49.5401L54.5503 49.2087C64.9619 47.7593 73.5025 42.5885 77.3968 35.3769C78.7174 32.9316 80.3712 31.5305 81.6585 30.748L84.2511 37.1846C82.5607 38.3133 80.4452 40.2015 79.4095 43.0121C78.7977 44.673 78.5826 46.0495 78.3929 47.264C78.164 48.7288 78.0126 49.6967 77.2523 50.8749C74.3156 55.426 76.0009 59.2047 76.2027 59.6206L76.9497 61.1595H81.0589L82.3399 64.4121L79.6628 65.7289Z" fill="black" stroke="white" stroke-width="1.2"/>
</svg>
