<svg width="30" height="28" viewBox="0 0 30 28" fill="none" xmlns="http://www.w3.org/2000/svg">
<path d="M26.0211 25.2176H25.2859V23.0708C25.2859 22.8617 25.1165 22.6924 24.9075 22.6924H24.279V13.2285C24.4899 13.1607 24.6747 13.0213 24.8 12.8236C25.7352 11.3471 26.0183 9.87603 25.6188 8.56955L23.9624 3.15199C23.5631 1.84512 22.5056 0.783907 20.9045 0.0830319C20.553 -0.070804 20.1561 -0.0079681 19.8696 0.247368C19.5827 0.502704 19.4742 0.889344 19.5865 1.25652L20.8827 5.49556L4.89903 10.3824L4.79813 10.0527C4.64145 9.54063 4.09764 9.25194 3.58577 9.40813L2.85164 9.63262C2.60396 9.70825 2.40047 9.87625 2.27841 10.1054C2.15645 10.3348 2.13108 10.5974 2.20671 10.8451L3.26081 14.2926C3.33655 14.5403 3.50455 14.7438 3.7338 14.8657C3.87654 14.9415 4.03223 14.9801 4.18902 14.9801C4.24327 14.9801 4.29747 14.9742 4.3515 14.965V20.6046H3.72287C3.51385 20.6046 3.34448 20.774 3.34448 20.983V25.2176H2.60938C2.00634 25.2176 1.51562 25.7082 1.51562 26.3113V27.6216C1.51562 27.8306 1.68499 28 1.89401 28H26.7365C26.9455 28 27.1148 27.8306 27.1148 27.6216V26.3113C27.1148 25.7082 26.6241 25.2176 26.0211 25.2176ZM23.272 25.2176V23.4491H24.5291V25.2176H23.272ZM16.1139 12.55H15.5367V10.98C15.5367 10.7355 15.4794 10.5048 15.3801 10.2978L21.755 8.34872L23.0512 12.588C23.1287 12.8411 23.2996 13.0413 23.5223 13.1592V22.6924H22.8936V22.6924C22.6846 22.6924 22.5152 22.8617 22.5152 23.0708V25.2176H17.5918L16.4907 12.8947C16.444 12.5463 16.1139 12.55 16.1139 12.55ZM13.1243 10.98C13.1243 10.5235 13.4957 10.1522 13.952 10.1522C14.4085 10.1522 14.7799 10.5235 14.7799 10.98V12.55H13.1243V10.98ZM16.2675 18.9973C16.2708 18.9932 16.2719 18.9881 16.275 18.9838L16.7546 24.3514L14.4048 21.3398L16.2675 18.9973ZM13.926 20.7261L12.3861 18.7526L13.9381 16.5973L15.4966 18.751L13.926 20.7261ZM16.2293 18.4726L14.404 15.9503L15.8273 13.9738L16.2293 18.4726ZM15.3751 13.3067L13.9366 15.3044L12.4909 13.3067H15.3751ZM13.4706 15.9514L11.6062 18.5406C11.5986 18.5512 11.5957 18.5635 11.5893 18.5746L12.0309 13.9621L13.4706 15.9514ZM11.559 18.892C11.5722 18.9281 11.5903 18.963 11.615 18.9945L13.4415 21.3355L11.0353 24.3615L11.559 18.892ZM13.9202 21.9491L16.4705 25.2177H11.3212L13.9202 21.9491ZM3.9846 14.0715L2.9305 10.6239C2.91388 10.5696 2.91956 10.5117 2.94663 10.4609C2.97359 10.4101 3.01844 10.373 3.07274 10.3564L3.80698 10.1319C3.9198 10.0971 4.04 10.1612 4.07451 10.274L4.28588 10.9655C4.31519 11.0614 4.38147 11.1418 4.47012 11.1889C4.55866 11.2362 4.66251 11.2457 4.75832 11.2168L21.4657 6.10872C21.6655 6.04763 21.7781 5.83616 21.717 5.63622L20.3102 1.03525C20.2844 0.950649 20.3065 0.871571 20.3729 0.812454C20.439 0.75372 20.5199 0.740868 20.6011 0.776251C21.9937 1.38585 22.9058 2.28388 23.2386 3.3732L24.895 8.79076C25.2281 9.87986 24.9741 11.1343 24.1607 12.4188C24.1134 12.4933 24.0396 12.5276 23.9511 12.5163C23.8633 12.5045 23.8007 12.4513 23.7748 12.3667L22.3681 7.76559C22.3387 7.66961 22.2725 7.58922 22.1838 7.54213C22.0951 7.49483 21.9914 7.48537 21.8956 7.5143L14.843 9.67057C14.5889 9.4971 14.2822 9.39538 13.952 9.39538C13.286 9.39538 12.7156 9.80904 12.4816 10.3926L5.18811 12.6225C5.09213 12.6519 5.01174 12.7182 4.96466 12.8067C4.91746 12.8953 4.90751 12.999 4.93682 13.0949L5.1285 13.7217C5.16312 13.8348 5.0993 13.9547 4.98637 13.9892L4.25213 14.2136C4.13915 14.2486 4.01905 14.1845 3.9846 14.0715ZM11.3732 12.8922L10.1931 25.2176H6.11517V20.983C6.11517 20.774 5.94581 20.6046 5.73679 20.6046H5.10827V14.7433L5.20752 14.713C5.4552 14.6372 5.6587 14.4692 5.78054 14.24C5.90249 14.0106 5.92787 13.748 5.85224 13.5004L5.77119 13.2355L12.3675 11.2189V12.5499H11.7498C11.7498 12.5499 11.4257 12.5341 11.3732 12.8922ZM4.10125 21.3614H5.35835V25.2176H4.10125V21.3614ZM26.3581 27.2432H2.27239V26.3113C2.27239 26.1255 2.42355 25.9744 2.60938 25.9744H26.0211C26.207 25.9744 26.3581 26.1255 26.3581 26.3113V27.2432Z" fill="#2F92EE"/>
</svg>
