<svg width="40" height="40" viewBox="0 0 40 40" fill="none" xmlns="http://www.w3.org/2000/svg">
<g id="pdf (1) 1">
<g id="PDF">
<path id="Vector" d="M35 40H8.125C7.95924 40 7.80027 39.9342 7.68306 39.8169C7.56585 39.6997 7.5 39.5408 7.5 39.375V0.625C7.5 0.45924 7.56585 0.300269 7.68306 0.183058C7.80027 0.065848 7.95924 0 8.125 0L28.5387 0C28.7045 3.53984e-05 28.8634 0.0659067 28.9806 0.183125L35.4419 6.64437C35.5591 6.76156 35.625 6.9205 35.625 7.08625V39.375C35.625 39.5408 35.5592 39.6997 35.4419 39.8169C35.3247 39.9342 35.1658 40 35 40Z" fill="url(#paint0_linear_1_15)"/>
<path id="Vector_2" d="M4.375 20.5912L6.875 19.4869L8.62 22.165H4.375V20.5912Z" fill="#2F92EE"/>
<path id="Vector_3" d="M34.375 40H7.5C7.33424 40 7.17527 39.9342 7.05806 39.8169C6.94085 39.6997 6.875 39.5408 6.875 39.375V0.625C6.875 0.45924 6.94085 0.300269 7.05806 0.183058C7.17527 0.065848 7.33424 0 7.5 0L28.1725 0L35 6.8275V39.375C35 39.5408 34.9342 39.6997 34.8169 39.8169C34.6997 39.9342 34.5408 40 34.375 40Z" fill="url(#paint1_linear_1_15)"/>
<path id="Vector_4" d="M28.1729 0V6.2025C28.1729 6.36826 28.2387 6.52723 28.3559 6.64444C28.4731 6.76165 28.6321 6.8275 28.7979 6.8275H35.0004L31.9379 3.14L28.1729 0Z" fill="url(#paint2_linear_1_15)"/>
<path id="Vector_5" d="M28.7637 32.8125H5.48125C5.33595 32.8126 5.19206 32.784 5.05781 32.7285C4.92356 32.6729 4.80157 32.5914 4.69883 32.4887C4.59609 32.3859 4.51461 32.2639 4.45904 32.1297C4.40348 31.9954 4.37492 31.8515 4.375 31.7063V21.6963H28.7637C29.0571 21.6964 29.3384 21.813 29.5458 22.0204C29.7532 22.2279 29.8698 22.5092 29.87 22.8025V31.7063C29.87 31.9996 29.7534 32.281 29.546 32.4885C29.3385 32.6959 29.0571 32.8125 28.7637 32.8125V32.8125Z" fill="#2F92EE"/>
<path id="Vector_6" d="M6.875 19.4869H5.48C5.33492 19.4868 5.19124 19.5153 5.05718 19.5708C4.92312 19.6262 4.8013 19.7076 4.69868 19.8101C4.59607 19.9127 4.51466 20.0344 4.45913 20.1685C4.40359 20.3025 4.375 20.4462 4.375 20.5912C4.37492 20.7364 4.40344 20.8801 4.45895 21.0142C4.51445 21.1483 4.59584 21.2702 4.69846 21.3728C4.80109 21.4754 4.92294 21.5568 5.05704 21.6123C5.19114 21.6678 5.33487 21.6963 5.48 21.6963H6.875V19.4869Z" fill="#2F92EE"/>
<g id="Group">
<path id="Vector_7" d="M9.375 29.3969V25.1131C9.37492 25.0418 9.38889 24.9712 9.41612 24.9053C9.44334 24.8394 9.48329 24.7796 9.53367 24.7291C9.58406 24.6787 9.64389 24.6387 9.70975 24.6114C9.77561 24.5841 9.84621 24.57 9.9175 24.57C10.7469 24.5381 11.5775 24.5651 12.4031 24.6506C12.7372 24.7476 13.0276 24.9568 13.2251 25.2431C13.4227 25.5294 13.5154 25.8751 13.4875 26.2219C13.5122 26.5894 13.4052 26.9537 13.1858 27.2496C12.9664 27.5455 12.6489 27.7537 12.29 27.8369C11.7403 27.9027 11.1866 27.9284 10.6331 27.9137C10.5869 27.9137 10.5425 27.9321 10.5098 27.9648C10.4771 27.9975 10.4587 28.0419 10.4587 28.0881V29.3969C10.4587 29.468 10.4447 29.5385 10.4175 29.6042C10.3903 29.67 10.3504 29.7297 10.3 29.78C10.2497 29.8304 10.19 29.8703 10.1242 29.8975C10.0585 29.9247 9.98804 29.9387 9.91688 29.9387C9.77316 29.9387 9.63533 29.8817 9.53371 29.78C9.43209 29.6784 9.375 29.5406 9.375 29.3969V29.3969ZM10.4587 25.6531V26.8275C10.4587 26.8737 10.4771 26.9181 10.5098 26.9508C10.5425 26.9835 10.5869 27.0019 10.6331 27.0019C11.0602 27.0313 11.4893 27.0029 11.9088 26.9175C12.0571 26.8585 12.1821 26.7527 12.2647 26.6161C12.3474 26.4795 12.3832 26.3197 12.3666 26.1609C12.3501 26.0021 12.2821 25.8531 12.173 25.7365C12.064 25.6199 11.9198 25.5421 11.7625 25.515C11.387 25.4826 11.01 25.4703 10.6331 25.4781C10.6102 25.4782 10.5876 25.4828 10.5664 25.4916C10.5453 25.5005 10.5261 25.5134 10.51 25.5296C10.4939 25.5459 10.4811 25.5652 10.4724 25.5863C10.4637 25.6075 10.4593 25.6302 10.4594 25.6531H10.4587Z" fill="white"/>
<path id="Vector_8" d="M14.375 25.1131C14.3749 25.0418 14.3889 24.9712 14.4161 24.9053C14.4433 24.8394 14.4833 24.7796 14.5337 24.7291C14.5841 24.6787 14.6439 24.6387 14.7098 24.6114C14.7756 24.5841 14.8462 24.57 14.9175 24.57C15.7389 24.521 16.5631 24.5553 17.3775 24.6725C17.6927 24.7744 17.9781 24.9521 18.2087 25.19C18.4392 25.4279 18.6079 25.7187 18.7 26.0369C18.8268 26.4475 18.8862 26.876 18.8756 27.3056C18.8838 27.6929 18.8281 28.079 18.7106 28.4481C18.6245 28.7728 18.4562 29.0697 18.2221 29.3106C17.988 29.5514 17.6958 29.7279 17.3738 29.8231C16.5604 29.9382 15.738 29.9763 14.9175 29.9369C14.7739 29.9369 14.6362 29.88 14.5346 29.7786C14.4329 29.6773 14.3755 29.5398 14.375 29.3963V25.1131ZM15.4588 25.6531V28.86C15.4588 28.9062 15.4771 28.9506 15.5098 28.9833C15.5425 29.016 15.5869 29.0344 15.6331 29.0344C16.064 29.0581 16.4961 29.041 16.9238 28.9831C17.1041 28.9452 17.2691 28.8543 17.3975 28.7222C17.526 28.5901 17.6122 28.4226 17.645 28.2413C17.728 27.9204 17.765 27.5894 17.755 27.2581C17.7666 26.9359 17.7295 26.6137 17.645 26.3025C17.5976 26.1095 17.4959 25.934 17.3519 25.797C17.2079 25.66 17.0277 25.5671 16.8325 25.5294C16.4333 25.4854 16.0315 25.4683 15.63 25.4781C15.5841 25.4788 15.5403 25.4975 15.5081 25.5303C15.4759 25.5631 15.458 25.6072 15.4581 25.6531H15.4588Z" fill="white"/>
<path id="Vector_9" d="M19.8008 29.3969V25.1131C19.8008 24.9691 19.858 24.831 19.9599 24.7291C20.0617 24.6272 20.1999 24.57 20.3439 24.57H23.027C23.1475 24.57 23.2631 24.6179 23.3483 24.7031C23.4335 24.7883 23.4814 24.9039 23.4814 25.0244C23.4814 25.084 23.4696 25.1431 23.4468 25.1982C23.424 25.2533 23.3905 25.3033 23.3483 25.3455C23.3061 25.3876 23.256 25.421 23.2009 25.4438C23.1457 25.4666 23.0867 25.4782 23.027 25.4781H21.062C21.0391 25.4781 21.0164 25.4827 20.9952 25.4915C20.974 25.5003 20.9547 25.5132 20.9385 25.5294C20.9223 25.5457 20.9095 25.565 20.9008 25.5862C20.892 25.6075 20.8876 25.6302 20.8877 25.6531V26.5744C20.8876 26.5973 20.892 26.6201 20.9008 26.6413C20.9095 26.6625 20.9223 26.6818 20.9385 26.6981C20.9547 26.7144 20.974 26.7273 20.9952 26.7361C21.0164 26.7449 21.0391 26.7494 21.062 26.7494H22.6745C22.7949 26.7494 22.9104 26.7972 22.9956 26.8823C23.0808 26.9673 23.1287 27.0827 23.1289 27.2031C23.1287 27.3236 23.0808 27.4391 22.9956 27.5243C22.9105 27.6094 22.795 27.6574 22.6745 27.6575H21.062C21.0391 27.6575 21.0165 27.662 20.9953 27.6708C20.9741 27.6796 20.9549 27.6924 20.9387 27.7086C20.9225 27.7248 20.9097 27.744 20.9009 27.7652C20.8922 27.7863 20.8877 27.809 20.8877 27.8319V29.3944C20.8875 29.5382 20.8303 29.676 20.7285 29.7776C20.6268 29.8792 20.4889 29.9363 20.3452 29.9363C20.274 29.9366 20.2035 29.9229 20.1376 29.896C20.0717 29.8691 20.0118 29.8294 19.9613 29.7793C19.9107 29.7292 19.8705 29.6697 19.843 29.6041C19.8155 29.5385 19.8011 29.4681 19.8008 29.3969V29.3969Z" fill="white"/>
</g>
</g>
</g>
<defs>
<linearGradient id="paint0_linear_1_15" x1="21.5625" y1="-19.9919" x2="21.5625" y2="-18.3881" gradientUnits="userSpaceOnUse">
<stop stop-color="#F3F7FF"/>
<stop offset="0.99" stop-color="#B5D1FF"/>
</linearGradient>
<linearGradient id="paint1_linear_1_15" x1="20.9375" y1="-3.39312" x2="20.9375" y2="96.2356" gradientUnits="userSpaceOnUse">
<stop stop-color="#F3F7FF"/>
<stop offset="0.99" stop-color="#B5D1FF"/>
</linearGradient>
<linearGradient id="paint2_linear_1_15" x1="31.5866" y1="-14.6431" x2="31.5866" y2="-2.49938" gradientUnits="userSpaceOnUse">
<stop stop-color="#F3F7FF"/>
<stop offset="0.99" stop-color="#B5D1FF"/>
</linearGradient>
</defs>
</svg>
