<svg width="64" height="64" viewBox="0 0 64 64" fill="none" xmlns="http://www.w3.org/2000/svg">
<path d="M17.5312 47.75C19.7404 47.75 21.5312 45.9591 21.5312 43.75C21.5312 41.5409 19.7404 39.75 17.5312 39.75C15.3221 39.75 13.5312 41.5409 13.5312 43.75C13.5312 45.9591 15.3221 47.75 17.5312 47.75Z" fill="#FF001A" stroke="white" stroke-width="1.3"/>
<path d="M60.5781 10.6875C59.2405 10.6875 58.1562 11.7718 58.1562 13.1094V22.7969C58.1562 26.8031 54.8969 30.0625 50.8906 30.0625H39.75C34.4083 30.0625 30.0625 34.4083 30.0625 39.75V40.1666C27.2437 41.1663 25.2188 43.8583 25.2188 47.0156V55.7344C25.2188 59.7406 28.4781 63 32.4844 63C36.4906 63 39.75 59.7406 39.75 55.7344V47.0156C39.75 43.8583 37.7251 41.1664 34.9062 40.1666V39.75C34.9062 37.0792 37.0792 34.9062 39.75 34.9062H50.8906C57.5679 34.9062 63 29.474 63 22.7969V13.1094C63 11.7718 61.9157 10.6875 60.5781 10.6875ZM34.9062 55.7344C34.9062 57.0698 33.8198 58.1562 32.4844 58.1562C31.149 58.1562 30.0625 57.0698 30.0625 55.7344V47.0156C30.0625 45.6802 31.149 44.5938 32.4844 44.5938C33.8198 44.5938 34.9062 45.6802 34.9062 47.0156V55.7344Z" fill="black" stroke="white"/>
<path d="M25.2188 25.2188H43.625C48.9667 25.2188 53.3125 20.8729 53.3125 15.5312V10.6875C53.3125 5.34581 48.9667 1 43.625 1H10.6875C5.34581 1 1 5.34581 1 10.6875V15.5312C1 20.8729 5.34581 25.2188 10.6875 25.2188V27.6406C10.6875 31.6469 13.9469 34.9062 17.9531 34.9062C21.9594 34.9062 25.2188 31.6469 25.2188 27.6406V25.2188ZM22.7969 20.375C21.4593 20.375 20.375 21.4593 20.375 22.7969V27.6406C20.375 28.976 19.2885 30.0625 17.9531 30.0625C16.6177 30.0625 15.5312 28.976 15.5312 27.6406V13.1094C15.5312 11.7718 14.447 10.6875 13.1094 10.6875C11.7718 10.6875 10.6875 11.7718 10.6875 13.1094V20.375C8.01666 20.375 5.84375 18.2021 5.84375 15.5312V10.6875C5.84375 8.01666 8.01666 5.84375 10.6875 5.84375H43.625C46.2958 5.84375 48.4688 8.01666 48.4688 10.6875V15.5312C48.4688 18.2021 46.2958 20.375 43.625 20.375H22.7969Z" fill="black" stroke="white"/>
</svg>
