<svg width="25" height="24" viewBox="0 0 25 24" fill="none" xmlns="http://www.w3.org/2000/svg">
<path d="M11.5604 0.999893C5.73735 0.999893 1 5.73725 1 11.5602C1 17.3832 5.73735 22.1206 11.5604 22.1206C17.3834 22.1206 22.1207 17.3832 22.1207 11.5602C22.1207 5.73725 17.3833 0.999893 11.5604 0.999893ZM11.5604 20.2733C6.75586 20.2733 2.84731 16.3647 2.84731 11.5602C2.84731 6.75575 6.75586 2.84721 11.5604 2.84721C16.3646 2.84721 20.2734 6.75575 20.2734 11.5602C20.2734 16.3647 16.3648 20.2733 11.5604 20.2733Z" fill="white" stroke="white"/>
<path d="M23.7029 21.7205L19.0181 17.7114C18.6573 17.3506 18.0729 17.3506 17.712 17.7114C17.3512 18.072 17.3512 18.6569 17.712 19.0175L22.3969 23.0266C22.5773 23.207 22.8134 23.2972 23.0499 23.2972C23.2864 23.2972 23.5225 23.207 23.7029 23.0266C24.0637 22.666 24.0637 22.0811 23.7029 21.7205Z" fill="white" stroke="white"/>
</svg>
