<svg width="59" height="59" viewBox="0 0 59 59" fill="none" xmlns="http://www.w3.org/2000/svg">
<path d="M16.289 13.427C15.4381 12.5754 14.0576 12.5754 13.2067 13.427C10.0475 16.5863 8.49467 20.9873 8.94593 25.5024C9.05851 26.6272 10.0061 27.4657 11.1127 27.4657C11.1854 27.4657 11.2587 27.462 11.3314 27.4547C12.5296 27.3349 13.4037 26.266 13.2838 25.0686C12.9627 21.8599 14.0584 18.7399 16.289 16.5092C17.1406 15.6584 17.1406 14.2778 16.289 13.427Z" fill="#FF001A"/>
<path d="M24.9224 0C11.1802 0 0 11.1802 0 24.9224C0 38.6647 11.1802 49.8449 24.9224 49.8449C38.6647 49.8449 49.8449 38.6647 49.8449 24.9224C49.8449 11.1802 38.6646 0 24.9224 0ZM24.9224 45.4852C13.5838 45.4852 4.35966 36.261 4.35966 24.9224C4.35966 13.5838 13.5838 4.35966 24.9224 4.35966C36.2603 4.35966 45.4852 13.5838 45.4852 24.9224C45.4852 36.261 36.261 45.4852 24.9224 45.4852Z" fill="black"/>
<path d="M53.5799 48.9006L42.5237 39.4391C41.6721 38.5875 40.293 38.5875 39.4414 39.4391C38.5898 40.29 38.5898 41.6705 39.4414 42.5214L50.4976 51.9829C50.9234 52.4087 51.4807 52.6215 52.0388 52.6215C52.5969 52.6215 53.1541 52.4087 53.5799 51.9829C54.4314 51.132 54.4314 49.7515 53.5799 48.9006Z" fill="black"/>
</svg>
