<svg width="69" height="69" viewBox="0 0 69 69" fill="none" xmlns="http://www.w3.org/2000/svg">
<path d="M19.0505 15.7027C18.0554 14.7068 16.4409 14.7068 15.4458 15.7027C11.7511 19.3975 9.9351 24.5445 10.4628 29.8248C10.5945 31.1403 11.7027 32.1208 12.9968 32.1208C13.0819 32.1208 13.1676 32.1165 13.2526 32.108C14.6539 31.9679 15.6761 30.7178 15.536 29.3174C15.1604 25.5649 16.4419 21.9161 19.0505 19.3073C20.0464 18.3124 20.0464 16.6977 19.0505 15.7027Z" fill="#FF001A"/>
<path d="M29.1466 0C13.0751 0 0 13.0751 0 29.1466C0 45.218 13.0751 58.2931 29.1466 58.2931C45.218 58.2931 58.2931 45.218 58.2931 29.1466C58.2931 13.0751 45.2179 0 29.1466 0ZM29.1466 53.1946C15.8862 53.1946 5.09859 42.407 5.09859 29.1466C5.09859 15.8862 15.8862 5.09859 29.1466 5.09859C42.4062 5.09859 53.1946 15.8862 53.1946 29.1466C53.1946 42.407 42.407 53.1946 29.1466 53.1946Z" fill="black"/>
<path d="M62.6607 57.1888L49.7306 46.1236C48.7346 45.1277 47.1218 45.1277 46.1258 46.1236C45.1299 47.1188 45.1299 48.7332 46.1258 49.7284L59.056 60.7935C59.554 61.2915 60.2057 61.5404 60.8584 61.5404C61.511 61.5404 62.1627 61.2915 62.6607 60.7935C63.6565 59.7984 63.6565 58.1839 62.6607 57.1888Z" fill="black"/>
</svg>
