<svg width="80" height="80" viewBox="0 0 80 80" fill="none" xmlns="http://www.w3.org/2000/svg">
<path d="M42.5354 79H37.6402C33.6809 79 30.4596 75.7788 30.4596 71.8196V70.1635C28.7764 69.6257 27.141 68.9468 25.5698 68.1338L24.3962 69.3074C21.5536 72.1535 17.0002 72.07 14.2402 69.3064L10.7803 65.8466C8.01542 63.0848 7.93589 58.5329 10.7812 55.6906L11.954 54.5179C11.1409 52.9468 10.4622 51.3117 9.92428 49.6281H8.26831C4.3092 49.6281 1.08789 46.407 1.08789 42.4477V37.5523C1.08789 33.593 4.3092 30.3719 8.26846 30.3719H9.92444C10.4624 28.6885 11.1411 27.0532 11.9541 25.4821L10.7805 24.3086C7.93681 21.468 8.01527 16.9157 10.7814 14.1526L14.2416 10.6926C17.008 7.92235 21.5603 7.85318 24.3974 10.6935L25.57 11.8661C27.1411 11.0532 28.7765 10.3743 30.4598 9.83639V8.18042C30.4598 4.22116 33.6809 1 37.6403 1H42.5356C46.4949 1 49.716 4.22116 49.716 8.18042V9.83655C51.3993 10.3743 53.0347 11.0532 54.6058 11.8662L55.7794 10.6926C58.622 7.84648 63.1754 7.92997 65.9354 10.6936L69.3953 14.1534C72.1602 16.9152 72.2397 21.4671 69.3944 24.3094L68.2217 25.4821C69.0347 27.0532 69.7134 28.6883 70.2513 30.3719H71.9073C75.8666 30.3719 79.0879 33.593 79.0879 37.5523V42.4477C79.0879 46.407 75.8666 49.6281 71.9073 49.6281H70.2513C69.7134 51.3115 69.0347 52.9468 68.2217 54.5179L69.3953 55.6916C72.239 58.5322 72.1605 63.0845 69.3944 65.8475L65.9342 69.3076C63.1678 72.0778 58.6155 72.147 55.7784 69.3067L54.6058 68.1341C53.0347 68.947 51.3993 69.6258 49.716 70.1638V71.8199C49.716 75.7788 46.4949 79 42.5354 79ZM26.3338 63.3345C28.5165 64.6253 30.8656 65.6005 33.3159 66.2328C34.325 66.4932 35.0301 67.4033 35.0301 68.4455V71.8196C35.0301 73.2588 36.2011 74.4297 37.6403 74.4297H42.5356C43.9748 74.4297 45.1459 73.2588 45.1459 71.8196V68.4455C45.1459 67.4033 45.8509 66.4932 46.86 66.2328C49.3103 65.6005 51.6595 64.6253 53.8421 63.3345C54.7402 62.8034 55.8835 62.9478 56.6213 63.6856L59.0113 66.0758C60.0417 67.1074 61.6965 67.0835 62.7016 66.0768L66.164 62.6147C67.1667 61.6132 67.2002 59.9581 66.1649 58.9241L63.7738 56.5331C63.0362 55.7955 62.8918 54.652 63.4227 53.754C64.7135 51.5716 65.6885 49.2224 66.3209 46.772C66.5814 45.7629 67.4915 45.058 68.5335 45.058H71.9075C73.3467 45.058 74.5177 43.8871 74.5177 42.4479V37.5524C74.5177 36.1133 73.3467 34.9423 71.9075 34.9423H68.5335C67.4913 34.9423 66.5814 34.2373 66.3209 33.2283C65.6885 30.7779 64.7133 28.4287 63.4227 26.2463C62.8918 25.3483 63.0362 24.2048 63.7738 23.4672L66.164 21.0771C67.1972 20.0451 67.1702 18.3906 66.1649 17.3866L62.7029 13.9245C61.6994 12.9197 60.0443 12.8903 59.0123 13.9236L56.6215 16.3147C55.8838 17.0525 54.74 17.1969 53.8422 16.6658C51.6596 15.375 49.3105 14.3999 46.8602 13.7675C45.8511 13.5071 45.146 12.597 45.146 11.5548V8.18042C45.146 6.74123 43.9749 5.57031 42.5357 5.57031H37.6405C36.2013 5.57031 35.0302 6.74123 35.0302 8.18042V11.5545C35.0302 12.5967 34.3252 13.5068 33.3161 13.7672C30.8658 14.3995 28.5166 15.3747 26.334 16.6655C25.4358 17.1964 24.2924 17.052 23.5548 16.3144L21.1648 13.9242C20.1344 12.8926 18.4795 12.9165 17.4744 13.9232L14.0121 17.3853C13.0094 18.3868 12.9759 20.0417 14.0112 21.0759L16.4022 23.4669C17.1399 24.2045 17.2843 25.348 16.7534 26.2459C15.4626 28.4284 14.4876 30.7776 13.8552 33.228C13.5947 34.2371 12.6846 34.942 11.6426 34.942H8.26846C6.82927 34.9422 5.6582 36.1131 5.6582 37.5523V42.4477C5.6582 43.8869 6.82927 45.0578 8.26846 45.0578H11.6424C12.6846 45.0578 13.5946 45.7629 13.8551 46.7718C14.4874 49.2223 15.4626 51.5714 16.7532 53.7539C17.2842 54.6518 17.1397 55.7953 16.4021 56.533L14.012 58.9231C12.9788 59.9551 13.0057 61.6095 14.0111 62.6136L17.4731 66.0756C18.4766 67.0805 20.1316 67.1099 21.1636 66.0765L23.5545 63.6855C24.098 63.1421 25.2289 62.6809 26.3338 63.3345Z" fill="black" stroke="white" stroke-width="0.4"/>
<path d="M40.0883 56.9711C30.7303 56.9711 23.1172 49.3579 23.1172 40C23.1172 30.6422 30.7303 23.0289 40.0883 23.0289C49.4463 23.0289 57.0594 30.6422 57.0594 40C57.0594 49.3579 49.4463 56.9711 40.0883 56.9711ZM40.0883 27.5992C33.2503 27.5992 27.6875 33.1622 27.6875 40C27.6875 46.8378 33.2505 52.4008 40.0883 52.4008C46.9261 52.4008 52.4891 46.8378 52.4891 40C52.4891 33.1622 46.9262 27.5992 40.0883 27.5992Z" fill="#FF001A" stroke="white" stroke-width="0.4"/>
</svg>
