<svg width="93" height="113" viewBox="0 0 93 113" fill="none" xmlns="http://www.w3.org/2000/svg">
<path d="M91.1581 25.9334L48.4273 0.529357C47.2397 -0.176452 45.7607 -0.176452 44.5732 0.529357L1.84212 25.9334C0.7001 26.6125 0 27.8427 0 29.1707V43.6724C0 74.2164 17.6593 102.114 45.1392 112.746C46.014 113.084 46.9853 113.085 47.861 112.746C75.2742 102.14 93 74.3034 93 43.6724V29.1707C93.0002 27.8425 92.3003 26.6125 91.1581 25.9334ZM65.1217 48.0359L41.4983 71.6437C40.0263 73.1147 37.6398 73.1147 36.1678 71.6437L27.877 63.3587C26.405 61.8879 26.405 59.5028 27.877 58.0318C29.349 56.5611 31.7357 56.5611 33.2075 58.0318L38.8328 63.6534L59.7912 42.7091C61.2629 41.2383 63.6497 41.2383 65.1217 42.7091C66.5939 44.1803 66.5939 46.5652 65.1217 48.0359Z" fill="#FF001A"/>
</svg>
