<svg width="66" height="66" viewBox="0 0 66 66" fill="none" xmlns="http://www.w3.org/2000/svg">
<path d="M62.6042 15.7709L50.2292 3.39591C50.0359 3.2025 49.7736 3.09381 49.5001 3.09375H16.5001C16.2266 3.09381 15.9644 3.2025 15.771 3.39591L3.39602 15.7709C3.27254 15.8943 3.18241 16.047 3.13407 16.2148C3.08574 16.3825 3.08077 16.5598 3.11964 16.73C3.46099 18.2242 11.7234 53.4322 32.5773 62.8155C32.7102 62.8753 32.8544 62.9062 33.0001 62.9062C33.1459 62.9062 33.29 62.8753 33.4229 62.8155C54.2769 53.4311 62.5392 18.2242 62.8806 16.73C62.9194 16.5598 62.9145 16.3825 62.8661 16.2148C62.8178 16.047 62.7277 15.8943 62.6042 15.7709ZM33.0001 60.7406C14.747 52.1122 6.39386 21.3252 5.25949 16.8197L16.927 5.15625H49.0732L60.7407 16.8197C59.6064 21.3252 51.2532 52.1122 33.0001 60.7406Z" fill="black" stroke="black" stroke-width="2"/>
<path d="M31.8299 49.1824C31.8222 48.909 31.7061 48.6498 31.5073 48.4619C27.0481 44.2502 22.9613 38.0751 19.3633 30.1087C19.3091 29.9829 19.2304 29.8691 19.1318 29.774C19.0331 29.6789 18.9165 29.6044 18.7888 29.5549C18.661 29.5053 18.5247 29.4818 18.3877 29.4855C18.2508 29.4893 18.1159 29.5203 17.9911 29.5768C17.8662 29.6332 17.7539 29.714 17.6606 29.8144C17.5673 29.9147 17.495 30.0327 17.4478 30.1613C17.4006 30.2899 17.3796 30.4267 17.3858 30.5636C17.3921 30.7004 17.4256 30.8347 17.4843 30.9585C21.1948 39.1713 25.4363 45.5651 30.0903 49.9613C30.2892 50.1492 30.5545 50.2504 30.828 50.2427C31.1014 50.2349 31.3606 50.1189 31.5485 49.9201C31.7364 49.7212 31.8376 49.4559 31.8299 49.1824Z" fill="#FF001A" stroke="#FF001A"/>
<path d="M53.9101 18.3101L45.1383 9.54445V9.54032C44.9438 9.35247 44.6833 9.24853 44.4129 9.25088C44.1425 9.25323 43.8839 9.36168 43.6927 9.55289C43.5015 9.74409 43.393 10.0027 43.3907 10.2731C43.3883 10.5435 43.4923 10.804 43.6801 10.9985L52.0229 19.3413C50.5699 24.3629 48.7701 29.2776 46.6367 34.05C46.5299 34.2983 46.5247 34.5785 46.6224 34.8305C46.7201 35.0824 46.9128 35.286 47.159 35.3973C47.4052 35.5087 47.6853 35.519 47.939 35.4259C48.1928 35.3329 48.3998 35.1439 48.5156 34.8998C50.7733 29.8487 52.664 24.6415 54.1731 19.3186C54.2228 19.1423 54.2246 18.9559 54.1784 18.7787C54.1322 18.6014 54.0396 18.4397 53.9101 18.3101Z" fill="black" stroke="black" stroke-width="2"/>
</svg>
