<svg width="61" height="60" viewBox="0 0 61 60" fill="none" xmlns="http://www.w3.org/2000/svg">
<g clip-path="url(#clip0_326_4239)">
<path d="M55.9868 16.2794L55.9849 16.2327C55.9588 15.6564 55.9414 15.0466 55.9309 14.3682C55.8819 11.06 53.2521 8.32349 49.9434 8.13855C43.0449 7.75357 37.7083 5.50413 33.1485 1.05971L33.1096 1.02263C31.6223 -0.341041 29.3789 -0.341041 27.8911 1.02263L27.8522 1.05971C23.2924 5.50413 17.9558 7.75357 11.0574 8.13901C7.74912 8.32349 5.11881 11.06 5.06983 14.3687C5.05976 15.0425 5.04191 15.6523 5.01582 16.2327L5.01307 16.3412C4.87895 23.3756 4.71232 32.1303 7.64108 40.0766C9.25149 44.4464 11.6905 48.2449 14.8898 51.3673C18.5335 54.9232 23.3062 57.7463 29.0749 59.7577C29.2626 59.8231 29.4576 59.8762 29.6563 59.9161C29.9364 59.9719 30.2184 59.9998 30.5004 59.9998C30.7824 59.9998 31.0648 59.9719 31.3445 59.9161C31.5432 59.8762 31.7395 59.8227 31.9281 59.7568C37.69 57.7417 42.4576 54.9173 46.0982 51.3618C49.2961 48.2385 51.7351 44.4391 53.3468 40.0684C56.2866 32.0983 56.1204 23.3271 55.9868 16.2794ZM50.0436 38.8503C46.9546 47.2255 40.649 52.9773 30.7663 56.4334C30.7311 56.4453 30.6935 56.4558 30.6546 56.4636C30.5526 56.4838 30.4486 56.4838 30.3452 56.4632C30.3067 56.4554 30.2692 56.4453 30.2344 56.4334C20.3412 52.9837 14.0314 47.2351 10.9448 38.8594C8.24533 31.5348 8.39822 23.4983 8.53326 16.4085L8.53418 16.3691C8.56165 15.7598 8.57996 15.1217 8.59003 14.4204C8.612 12.9515 9.78204 11.7361 11.2537 11.6542C15.1575 11.4363 18.5871 10.6819 21.7383 9.34796C24.8855 8.01587 27.6806 6.13813 30.2825 3.60762C30.4148 3.49592 30.5864 3.49547 30.7183 3.60762C33.3206 6.13813 36.1157 8.01587 39.2624 9.34796C42.4136 10.6819 45.8432 11.4363 49.7474 11.6542C51.2192 11.7361 52.3892 12.9515 52.4107 14.4209C52.4212 15.1258 52.4395 15.764 52.467 16.3691C52.6016 23.4672 52.7508 31.5101 50.0436 38.8503Z" fill="black" stroke="black" stroke-width="0.56"/>
<path d="M34.7982 25.3587L27.8531 32.3038L25.968 30.4188C25.2804 29.7312 24.1658 29.7312 23.4782 30.4188C22.7911 31.1063 22.7911 32.221 23.4782 32.9081L26.6084 36.0383C26.9522 36.382 27.4026 36.5537 27.8531 36.5537C28.3035 36.5537 28.7539 36.382 29.0977 36.0383L37.288 27.848C37.9751 27.1604 37.9751 26.0458 37.288 25.3587C36.6004 24.6706 35.4858 24.6706 34.7982 25.3587Z" fill="#FF001A"/>
</g>
<defs>
<clipPath id="clip0_326_4239">
<rect width="60" height="60" fill="white" transform="translate(0.5)"/>
</clipPath>
</defs>
</svg>
