<svg width="200" height="201" viewBox="0 0 200 201" fill="none" xmlns="http://www.w3.org/2000/svg">
<path fill-rule="evenodd" clip-rule="evenodd" d="M42.8977 160.857L51.9886 162.565L59.9432 123.276L50.8523 121.568L42.8977 160.857ZM142.614 113.312L139.489 104.486L177.273 91.6742L180.398 100.5L142.614 113.312ZM59.6591 11.3881L53.4091 18.5057L83.5227 44.983L89.7727 37.8654L59.6591 11.3881ZM93.1818 96.2295L113.068 113.881L132.955 131.533L127.841 157.725L122.727 183.918L97.4432 192.459L72.1591 201L52.2727 183.348L32.3864 165.697L37.5 139.504L42.6136 113.312L67.8977 104.771L93.1818 96.2295ZM160.227 19.9292L180.114 37.5807L200 55.2323L194.886 81.4249L189.773 107.618L164.489 116.159L139.205 124.7L119.318 107.048L99.4318 89.3966L104.545 63.204L109.659 37.0113L134.943 28.4703L160.227 19.9292ZM60.7955 0L80.6818 17.6516L100.568 35.3031L95.4546 61.4958L90.3409 87.6884L65.0568 96.2295L39.7727 104.771L19.8864 87.119L0 69.4674L5.11365 43.2748L10.5114 17.0822L35.7955 8.54108L60.7955 0Z" fill="#FF001A"/>
</svg>
