<svg width="80" height="76" viewBox="0 0 80 76" fill="none" xmlns="http://www.w3.org/2000/svg">
<path d="M63.4965 58.0301L34.1045 74.9996C33.3763 75.4201 32.479 75.4201 31.7508 74.9996L1.17674 57.3477C0.44857 56.9273 0 56.1503 0 55.3095V20.0055C0 19.1646 0.44857 18.3877 1.17674 17.9673L31.7508 0.315322C32.479 -0.105107 33.3763 -0.105107 34.1045 0.315322L63.4965 17.2849L76.4614 9.73419C77.5847 9.07995 79.0255 9.46036 79.6798 10.5835C80.334 11.7066 79.9536 13.1476 78.8305 13.8017L65.8555 21.3583V53.9564L78.8305 61.5131C79.9537 62.1673 80.334 63.6082 79.6798 64.7313C79.0255 65.8544 77.5847 66.2349 76.4614 65.5806L63.4965 58.0301ZM32.9276 5.07118L4.70709 21.3643V53.9505L32.9276 70.2436L61.1481 53.9505V21.3643L32.9276 5.07118ZM34.1043 59.1551C35.2301 59.8051 35.6157 61.2444 34.9658 62.3702C34.3158 63.496 32.8765 63.8817 31.7507 63.2317L11.368 51.4637C10.2422 50.8137 9.85664 49.3744 10.5065 48.2486C11.1565 47.1228 12.5958 46.7371 13.7216 47.3871L34.1043 59.1551ZM13.7216 27.9277C12.5958 28.5777 11.1565 28.192 10.5065 27.0662C9.85649 25.9404 10.2422 24.5011 11.368 23.8511L31.7507 12.0831C32.8765 11.4331 34.3158 11.8188 34.9658 12.9446C35.6158 14.0704 35.2301 15.5097 34.1043 16.1597L13.7216 27.9277Z" fill="black"/>
<path d="M52.9337 23.5358C51.6338 23.5358 50.5801 24.5895 50.5801 25.8894V49.4253C50.5801 50.7252 51.6338 51.7789 52.9337 51.7789C54.2336 51.7789 55.2873 50.7252 55.2873 49.4253V25.8894C55.2873 24.5895 54.2336 23.5358 52.9337 23.5358Z" fill="#FF001A"/>
</svg>
