<svg width="72" height="72" viewBox="0 0 72 72" fill="none" xmlns="http://www.w3.org/2000/svg">
<path d="M36.0014 57.0037C24.4203 57.0037 15 47.5834 15 36.0023C15 24.4212 24.4203 15.0009 36.0014 15.0009C47.5825 15.0009 57.0028 24.4212 57.0028 36.0023C57.0028 47.5834 47.5825 57.0037 36.0014 57.0037ZM36.0014 19.6679C26.9965 19.6679 19.667 26.9974 19.667 36.0023C19.667 45.0073 26.9965 52.3367 36.0014 52.3367C45.0063 52.3367 52.3358 45.0073 52.3358 36.0023C52.3358 26.9974 45.0063 19.6679 36.0014 19.6679Z" fill="black" stroke="white" stroke-width="0.5"/>
<path d="M47.6689 38.3358C46.3785 38.3358 45.3354 37.2928 45.3354 36.0023C45.3354 30.8547 41.1491 26.6684 36.0015 26.6684C34.711 26.6684 33.668 25.6253 33.668 24.3349C33.668 23.0445 34.711 22.0014 36.0015 22.0014C43.723 22.0014 50.0024 28.2808 50.0024 36.0023C50.0024 37.2928 48.9593 38.3358 47.6689 38.3358Z" fill="#FF001A" stroke="white" stroke-width="0.5"/>
<path d="M36.0015 10.334C34.711 10.334 33.668 9.29089 33.668 8.00047V3.33349C33.668 2.04307 34.711 1 36.0015 1C37.2919 1 38.3349 2.04307 38.3349 3.33349V8.00047C38.3349 9.29089 37.2919 10.334 36.0015 10.334Z" fill="black" stroke="white" stroke-width="0.5"/>
<path d="M16.202 18.5338C15.6046 18.5338 15.0072 18.3051 14.5522 17.8501L11.2527 14.5506C10.3403 13.6382 10.3403 12.1634 11.2527 11.251C12.165 10.3386 13.6398 10.3386 14.5522 11.251L17.8518 14.5506C18.7642 15.463 18.7642 16.9377 17.8518 17.8501C17.3944 18.3051 16.7994 18.5338 16.202 18.5338Z" fill="black" stroke="white" stroke-width="0.5"/>
<path d="M8.00047 38.3358H3.33349C2.04307 38.3358 1 37.2927 1 36.0023C1 34.7119 2.04307 33.6688 3.33349 33.6688H8.00047C9.29089 33.6688 10.334 34.7119 10.334 36.0023C10.334 37.2927 9.29089 38.3358 8.00047 38.3358Z" fill="black" stroke="white" stroke-width="0.5"/>
<path d="M12.9024 61.4327C12.3051 61.4327 11.7077 61.204 11.2527 60.749C10.3403 59.8366 10.3403 58.3618 11.2527 57.4494L14.5522 54.1499C15.4646 53.2375 16.9394 53.2375 17.8518 54.1499C18.7642 55.0623 18.7642 56.537 17.8518 57.4494L14.5522 60.749C14.0948 61.2063 13.4975 61.4327 12.9024 61.4327Z" fill="black" stroke="white" stroke-width="0.5"/>
<path d="M36.0018 71.0023C34.7138 71.0023 33.6684 69.9593 33.6684 68.6712L33.666 64.0042C33.666 62.7138 34.7091 61.6684 35.9995 61.6684C37.2876 61.6684 38.333 62.7114 38.333 63.9995L38.3353 68.6665C38.3353 69.9569 37.2923 71.0023 36.0018 71.0023Z" fill="black" stroke="white" stroke-width="0.5"/>
<path d="M59.1008 61.4327C58.5034 61.4327 57.9061 61.204 57.451 60.749L54.1491 57.4494C53.2367 56.5394 53.2367 55.0623 54.1491 54.1499C55.0615 53.2375 56.5363 53.2375 57.4487 54.1499L60.7506 57.4494C61.663 58.3595 61.663 59.8366 60.7506 60.749C60.2956 61.2063 59.6982 61.4327 59.1008 61.4327Z" fill="black" stroke="white" stroke-width="0.5"/>
<path d="M68.6684 38.3358H64.0015C62.711 38.3358 61.668 37.2928 61.668 36.0023C61.668 34.7119 62.711 33.6689 64.0015 33.6689H68.6684C69.9589 33.6689 71.0019 34.7119 71.0019 36.0023C71.0019 37.2928 69.9589 38.3358 68.6684 38.3358Z" fill="black" stroke="white" stroke-width="0.5"/>
<path d="M55.8009 18.5385C55.2035 18.5385 54.6061 18.3098 54.1511 17.8548C53.2387 16.9447 53.2387 15.4676 54.1511 14.5552L57.4483 11.2557C58.3607 10.3433 59.8355 10.3433 60.7479 11.2557C61.6603 12.1657 61.6603 13.6428 60.7479 14.5552L57.4506 17.8548C56.9956 18.3098 56.3982 18.5385 55.8009 18.5385Z" fill="black" stroke="white" stroke-width="0.5"/>
</svg>
