<svg width="32" height="33" viewBox="0 0 32 33" fill="none" xmlns="http://www.w3.org/2000/svg">
<circle cx="14.9999" cy="17" r="15" fill="white"/>
<path d="M15.6999 32.1298C24.3729 32.1298 31.4 25.1027 31.4 16.4297C31.4 7.7568 24.3729 0.729736 15.6999 0.729736C7.027 0.729736 -6.10352e-05 7.7568 -6.10352e-05 16.4297C-6.10352e-05 25.1027 7.027 32.1298 15.6999 32.1298ZM7.184 16.0896L22.3214 10.2531C23.024 9.99928 23.6376 10.4245 23.41 11.4869L23.4113 11.4856L20.8339 23.6282C20.6428 24.4891 20.1313 24.6984 19.4156 24.2928L15.4906 21.4001L13.5975 23.2239C13.3881 23.4333 13.2115 23.6099 12.8059 23.6099L13.0846 19.6155L20.3589 13.0438C20.6755 12.7651 20.2883 12.6081 19.8709 12.8855L10.8814 18.5453L7.00607 17.3364C6.16481 17.0695 6.14649 16.4952 7.184 16.0896V16.0896Z" fill="#2F9EEE"/>
</svg>
