<svg width="54" height="54" viewBox="0 0 54 54" fill="none" xmlns="http://www.w3.org/2000/svg">
<path d="M49.6989 38.7775C51.0546 38.7775 52.1536 37.6816 52.1536 36.3296C52.1536 34.9777 51.0546 33.8817 49.6989 33.8817C48.3432 33.8817 47.2441 34.9777 47.2441 36.3296C47.2441 37.6816 48.3432 38.7775 49.6989 38.7775Z" fill="black"/>
<path d="M44.3434 46.6625C45.6991 46.6625 46.7982 45.5666 46.7982 44.2146C46.7982 42.8627 45.6991 41.7667 44.3434 41.7667C42.9877 41.7667 41.8887 42.8627 41.8887 44.2146C41.8887 45.5666 42.9877 46.6625 44.3434 46.6625Z" fill="black"/>
<path d="M51.5446 29.3846C52.9003 29.3846 53.9993 28.2886 53.9993 26.9367C53.9993 25.5847 52.9003 24.4888 51.5446 24.4888C50.1889 24.4888 49.0898 25.5847 49.0898 26.9367C49.0898 28.2886 50.1889 29.3846 51.5446 29.3846Z" fill="black"/>
<path d="M36.3942 52.0109C37.7499 52.0109 38.8489 50.915 38.8489 49.563C38.8489 48.2111 37.7499 47.1151 36.3942 47.1151C35.0385 47.1151 33.9395 48.2111 33.9395 49.563C33.9395 50.915 35.0385 52.0109 36.3942 52.0109Z" fill="black"/>
<path d="M27.0042 48.9582C23.4686 48.9625 19.9837 48.1205 16.8422 46.5031C13.7007 44.8856 10.9943 42.5399 8.95047 39.663C6.90662 36.7862 5.585 33.4622 5.09663 29.9703C4.60826 26.4784 4.96741 22.9206 6.14391 19.5958C7.32041 16.2711 9.27989 13.2765 11.8577 10.8635C14.4356 8.45063 17.5565 6.68992 20.9582 5.72932C24.36 4.76873 27.9433 4.63631 31.407 5.34319C34.8708 6.05008 38.1138 7.57562 40.8636 9.79165H36.8231C36.1721 9.79165 35.5477 10.0496 35.0874 10.5086C34.627 10.9677 34.3684 11.5903 34.3684 12.2396C34.3684 12.8888 34.627 13.5114 35.0874 13.9705C35.5477 14.4296 36.1721 14.6875 36.8231 14.6875H46.6421C47.2931 14.6875 47.9175 14.4296 48.3779 13.9705C48.8382 13.5114 49.0968 12.8888 49.0968 12.2396V2.44791C49.0968 1.79869 48.8382 1.17605 48.3779 0.716977C47.9175 0.257904 47.2931 0 46.6421 0C45.9911 0 45.3667 0.257904 44.9063 0.716977C44.446 1.17605 44.1873 1.79869 44.1873 2.44791V6.19567C40.8492 3.44359 36.896 1.53306 32.6615 0.625442C28.427 -0.282173 24.0357 -0.160209 19.8584 0.981031C15.6811 2.12227 11.8406 4.24927 8.66131 7.18236C5.48198 10.1154 3.0572 13.7685 1.59177 17.8329C0.126353 21.8973 -0.336663 26.2537 0.241835 30.5342C0.820334 34.8146 2.42335 38.8934 4.9155 42.4259C7.40764 45.9584 10.7157 48.841 14.5603 50.8301C18.4048 52.8191 22.673 53.8564 27.0042 53.8541C27.6552 53.8541 28.2796 53.5962 28.7399 53.1371C29.2003 52.678 29.4589 52.0554 29.4589 51.4062C29.4589 50.7569 29.2003 50.1343 28.7399 49.6752C28.2796 49.2162 27.6552 48.9582 27.0042 48.9582Z" fill="black"/>
<path d="M36.1013 36.0017C36.5615 35.5426 36.8201 34.9201 36.8201 34.271C36.8201 33.6219 36.5615 32.9994 36.1013 32.5403L29.4564 25.9138V12.2398C29.4564 11.5906 29.1977 10.9679 28.7374 10.5088C28.277 10.0498 27.6527 9.79187 27.0016 9.79187C26.3506 9.79187 25.7262 10.0498 25.2659 10.5088C24.8055 10.9679 24.5469 11.5906 24.5469 12.2398V26.9273C24.547 27.5764 24.8057 28.199 25.2661 28.6579L32.6303 36.0017C33.0907 36.4606 33.7149 36.7184 34.3658 36.7184C35.0168 36.7184 35.641 36.4606 36.1013 36.0017Z" fill="#FF001A"/>
</svg>
