<svg width="58" height="59" viewBox="0 0 58 59" fill="none" xmlns="http://www.w3.org/2000/svg">
<path d="M39.9832 24.0544C40.8944 23.1269 40.8944 21.6231 39.9832 20.6956C39.072 19.7681 37.5946 19.7681 36.6834 20.6956L26.6666 30.8913L22.4832 26.6331C21.572 25.7056 20.0946 25.7056 19.1834 26.6331C18.2722 27.5605 18.2722 29.0644 19.1834 29.9918L25.0168 35.9293C25.928 36.8568 27.4054 36.8568 28.3167 35.9293L39.9832 24.0544Z" fill="#FF001A" stroke="white" stroke-width="0.8"/>
<path fill-rule="evenodd" clip-rule="evenodd" d="M1 29.5C1 52.9697 5.942 58 29 58C52.058 58 57 52.9697 57 29.5C57 6.03025 52.058 1 29 1C5.942 1 1 6.03025 1 29.5ZM5.6667 29.5C5.6667 35.2591 5.97602 39.5626 6.68805 42.824C7.38838 46.0312 8.41464 47.9319 9.65309 49.1923C10.8915 50.453 12.7588 51.4977 15.9099 52.2104C19.1139 52.9352 23.342 53.25 29 53.25C34.6581 53.25 38.8861 52.9352 42.0902 52.2104C45.2412 51.4977 47.1086 50.4528 48.3468 49.1923C49.5854 47.9318 50.6117 46.0311 51.312 42.824C52.0241 39.5626 52.3333 35.2591 52.3333 29.5C52.3333 23.741 52.0241 19.4373 51.312 16.1761C50.6117 12.9689 49.5853 11.0683 48.3468 9.80761C47.1085 8.54704 45.2411 7.50234 42.0902 6.78962C38.8861 6.06487 34.6581 5.75004 29 5.75004C23.342 5.75004 19.1138 6.06487 15.9099 6.78962C12.7589 7.50245 10.8917 8.54704 9.65309 9.80761C8.41453 11.0682 7.38827 12.9688 6.68805 16.1761C5.97591 19.4373 5.6667 23.741 5.6667 29.5Z" fill="black" stroke="white" stroke-width="0.8"/>
</svg>
