<svg width="33" height="36" viewBox="0 0 33 36" fill="none" xmlns="http://www.w3.org/2000/svg">
<ellipse cx="16.7011" cy="15" rx="13.5" ry="13" fill="white"/>
<path d="M19.9896 0.729736H13.0118C6.29572 0.729736 0.80072 6.16752 0.80072 12.8137V17.9926C0.80072 22.6535 3.54822 26.9261 7.7785 28.9113V34.6943C7.7785 35.2122 8.43267 35.4712 8.78156 35.0827L13.8405 30.0765H19.9896C26.7057 30.0765 32.2007 24.6387 32.2007 17.9926V12.8137C32.2007 6.16752 26.7057 0.729736 19.9896 0.729736V0.729736ZM24.5688 23.3872L22.7807 25.1135C20.9055 26.9261 16.0646 24.8545 11.7907 20.5388C7.51684 16.2231 5.64156 11.3895 7.42961 9.57693L9.17406 7.85065C9.82823 7.20329 10.9185 7.24645 11.6599 7.89381L14.1893 10.4832C15.1052 11.3895 14.7127 12.9432 13.5352 13.2884C12.7066 13.5474 12.1396 14.4537 12.4013 15.2737C12.8374 17.1726 15.2796 19.5894 17.1113 20.0641C17.9399 20.2367 18.8557 19.8052 19.161 18.9852C19.5535 17.8199 21.1235 17.4747 21.9957 18.381L24.5252 20.9704C25.223 21.5746 25.223 22.6535 24.5688 23.3872V23.3872ZM18.0707 8.92958C17.8963 8.92958 17.7218 8.92958 17.5474 8.97273C17.2421 9.01589 16.9368 8.75695 16.8932 8.45485C16.8496 8.15275 17.1113 7.85065 17.4166 7.80749C17.6346 7.76433 17.8527 7.76433 18.0707 7.76433C21.2543 7.76433 23.871 10.3538 23.871 13.5042C23.871 13.72 23.871 13.9358 23.8274 14.1516C23.7838 14.4537 23.4785 14.7126 23.1732 14.6695C22.868 14.6263 22.6063 14.3242 22.6499 14.0221C22.6499 13.8495 22.6935 13.6768 22.6935 13.5042C22.7371 11.0011 20.6438 8.92958 18.0707 8.92958ZM21.5596 13.5474C21.5596 13.8495 21.298 14.1084 20.9927 14.1084C20.6874 14.1084 20.4257 13.8495 20.4257 13.5474C20.4257 12.2958 19.3791 11.2601 18.1143 11.2601C17.8091 11.2601 17.5474 11.0011 17.5474 10.699C17.5474 10.3969 17.8091 10.138 18.1143 10.138C19.9896 10.0948 21.5596 11.6485 21.5596 13.5474V13.5474ZM26.008 15.4031C25.9207 15.7052 25.6155 15.921 25.2666 15.8347C24.9613 15.7484 24.7868 15.4463 24.8741 15.1442C25.0049 14.6263 25.0485 14.1084 25.0485 13.5474C25.0485 9.74956 21.9085 6.64225 18.0707 6.64225C17.8963 6.64225 17.7218 6.64225 17.5474 6.64225C17.2421 6.64225 16.9368 6.42647 16.9368 6.12437C16.9368 5.82227 17.1549 5.52017 17.4602 5.52017C17.6782 5.52017 17.8963 5.47701 18.0707 5.47701C22.5627 5.47701 26.226 9.1022 26.226 13.5474C26.226 14.1516 26.1388 14.7989 26.008 15.4031V15.4031Z" fill="#9451D7"/>
</svg>
