<svg width="33" height="33" viewBox="0 0 33 33" fill="none" xmlns="http://www.w3.org/2000/svg">
<g clip-path="url(#clip0_323_21)">
<path d="M16.4999 0C13.2366 0 10.0464 0.967708 7.33304 2.78075C4.61963 4.5938 2.50478 7.17074 1.25593 10.1857C0.00708821 13.2007 -0.319667 16.5183 0.316989 19.719C0.953645 22.9197 2.52512 25.8597 4.83268 28.1673C7.14025 30.4748 10.0803 32.0463 13.281 32.683C16.4816 33.3196 19.7992 32.9929 22.8142 31.744C25.8292 30.4952 28.4062 28.3803 30.2192 25.6669C32.0322 22.9535 32.9999 19.7634 32.9999 16.5C32.9999 12.1239 31.2616 7.92709 28.1672 4.83274C25.0729 1.73839 20.876 0 16.4999 0V0ZM26.0099 22.9575C25.5299 23.025 23.1824 22.9575 23.0606 22.9575C22.4537 22.9655 21.8682 22.7337 21.4312 22.3125C20.9362 21.8344 20.4937 21.3094 20.0099 20.8125C19.8674 20.66 19.7125 20.5195 19.5468 20.3925C19.1606 20.0963 18.7781 20.1619 18.5962 20.6194C18.4542 21.1118 18.3551 21.6155 18.2999 22.125C18.2681 22.5863 17.9756 22.875 17.4581 22.9069C17.1374 22.9238 16.8168 22.9313 16.4999 22.9219C15.345 22.9156 14.2081 22.6347 13.1831 22.1025C12.0737 21.4849 11.107 20.6403 10.3462 19.6238C9.09557 18.0263 8.0962 16.2712 7.2037 14.4619C7.15682 14.37 6.24182 12.4237 6.21932 12.3319C6.13682 12.0262 6.21932 11.7319 6.47245 11.6288C6.6337 11.5669 9.6487 11.6288 9.69932 11.6288C9.92363 11.6272 10.1426 11.6971 10.3246 11.8282C10.5066 11.9593 10.6422 12.1449 10.7118 12.3581C11.2697 13.785 12.0327 15.1228 12.9768 16.3294C13.1091 16.4901 13.2638 16.6309 13.4362 16.7475C13.6818 16.9163 13.9143 16.8581 14.0156 16.5731C14.1357 16.1803 14.2063 15.7741 14.2256 15.3638C14.2424 14.55 14.2256 14.0156 14.1806 13.2019C14.1506 12.6806 13.9668 12.225 13.1981 12.0769C12.9618 12.0338 12.9412 11.8388 13.0931 11.6438C13.4099 11.2406 13.8431 11.175 14.3287 11.1506C15.0524 11.1094 15.7762 11.1375 16.4999 11.1506H16.6574C16.9724 11.1495 17.2867 11.1815 17.5949 11.2463C17.7773 11.2835 17.9428 11.3786 18.0668 11.5174C18.1908 11.6563 18.2666 11.8315 18.2831 12.0169C18.3203 12.2222 18.336 12.4308 18.3299 12.6394C18.3112 13.5263 18.2681 14.415 18.2587 15.3019C18.25 15.6538 18.2821 16.0055 18.3543 16.35C18.4574 16.8225 18.7818 16.9406 19.1043 16.5994C19.5223 16.1592 19.9053 15.6872 20.2499 15.1875C20.8608 14.2768 21.3641 13.2984 21.7499 12.2719C21.9599 11.745 22.1249 11.6288 22.6874 11.6288H25.8862C26.0764 11.6254 26.266 11.6507 26.4487 11.7038C26.5134 11.7207 26.5738 11.7509 26.6263 11.7923C26.6787 11.8338 26.7221 11.8856 26.7536 11.9446C26.7851 12.0035 26.8041 12.0684 26.8094 12.135C26.8147 12.2017 26.8061 12.2687 26.7843 12.3319C26.6268 13.0331 26.2481 13.6313 25.8468 14.2069C25.1962 15.1275 24.5099 16.0256 23.8443 16.935C23.7642 17.0526 23.691 17.1746 23.6249 17.3006C23.3737 17.7544 23.3924 18.0075 23.7562 18.3825C24.3374 18.9806 24.9581 19.5394 25.5187 20.1544C25.9299 20.6018 26.3013 21.0843 26.6287 21.5963C27.0281 22.2413 26.7749 22.8488 26.0099 22.9575Z" fill="white"/>
</g>
<defs>
<clipPath id="clip0_323_21">
<rect width="33" height="33" fill="white"/>
</clipPath>
</defs>
</svg>
