<svg width="32" height="33" viewBox="0 0 32 33" fill="none" xmlns="http://www.w3.org/2000/svg">
<circle cx="15.5995" cy="17" r="15" fill="white"/>
<path d="M16.1003 0.729736C7.42608 0.729736 0.40033 7.75549 0.40033 16.4297C0.40033 19.8838 1.49933 23.063 3.38333 25.6535L1.22458 31.3448L7.46533 29.5393C9.93809 31.1878 12.9211 32.1298 16.1003 32.1298C24.7746 32.1298 31.8004 25.104 31.8004 16.4297C31.8004 7.75549 24.7746 0.729736 16.1003 0.729736ZM24.4606 22.9453L22.7728 24.5938C21.0066 26.36 16.3358 24.4368 12.2146 20.2763C8.09333 16.155 6.24858 11.4842 7.89709 9.75724L9.58484 8.06949C10.2128 7.44149 11.2726 7.44149 11.9398 8.06949L14.4126 10.5422C15.2761 11.4057 14.9228 12.8972 13.7846 13.2505C12.9996 13.5252 12.4501 14.3887 12.7248 15.1737C13.1566 17.0185 15.5508 19.295 17.3171 19.7268C18.1021 19.923 19.0048 19.452 19.2403 18.667C19.5936 17.5287 21.0851 17.1755 21.9486 18.039L24.4213 20.5118C25.0493 21.179 25.0493 22.2388 24.4606 22.9453V22.9453Z" fill="#4ACD57"/>
</svg>
