<svg width="33" height="33" viewBox="0 0 33 33" fill="none" xmlns="http://www.w3.org/2000/svg">
<g clip-path="url(#clip0_323_15)">
<path d="M14.2109 19.1618L18.7875 16.5066L14.2109 13.8384V19.1618Z" fill="white"/>
<path d="M16.4999 0C13.2366 0 10.0464 0.967708 7.33304 2.78075C4.61963 4.59379 2.50478 7.17074 1.25593 10.1857C0.00708812 13.2007 -0.319667 16.5183 0.316989 19.719C0.953645 22.9197 2.52512 25.8597 4.83268 28.1673C7.14025 30.4748 10.0803 32.0463 13.281 32.683C16.4816 33.3196 19.7992 32.9929 22.8142 31.744C25.8292 30.4952 28.4062 28.3803 30.2192 25.6669C32.0322 22.9535 32.9999 19.7634 32.9999 16.5C32.9999 12.1239 31.2616 7.92709 28.1672 4.83274C25.0729 1.73839 20.876 0 16.4999 0V0ZM25.1842 19.4201C25.1844 19.8516 25.0997 20.279 24.9347 20.6778C24.7698 21.0766 24.5279 21.4389 24.2228 21.7442C23.9178 22.0494 23.5556 22.2916 23.1569 22.4568C22.7582 22.622 22.3309 22.707 21.8994 22.707H11.1005C10.669 22.707 10.2417 22.622 9.843 22.4568C9.44433 22.2916 9.08212 22.0494 8.77706 21.7442C8.47201 21.4389 8.2301 21.0766 8.06515 20.6778C7.9002 20.279 7.81545 19.8516 7.81574 19.4201V13.5799C7.81545 13.1484 7.9002 12.721 8.06515 12.3222C8.2301 11.9234 8.47201 11.5611 8.77706 11.2558C9.08212 10.9506 9.44433 10.7084 9.843 10.5432C10.2417 10.378 10.669 10.293 11.1005 10.293H21.8994C22.3309 10.293 22.7582 10.378 23.1569 10.5432C23.5556 10.7084 23.9178 10.9506 24.2228 11.2558C24.5279 11.5611 24.7698 11.9234 24.9347 12.3222C25.0997 12.721 25.1844 13.1484 25.1842 13.5799V19.4201Z" fill="white"/>
</g>
<defs>
<clipPath id="clip0_323_15">
<rect width="33" height="33" fill="white"/>
</clipPath>
</defs>
</svg>
